<?xml version="1.0" encoding="UTF-8"?>
<svg id="_图层_1" data-name="图层 1" xmlns="http://www.w3.org/2000/svg" viewBox="0 0 464.4 455.1">
  <defs>
    <style>
      .cls-1 {
        fill: #063a5b;
      }

      .cls-1, .cls-2, .cls-3, .cls-4 {
        stroke-width: 0px;
      }

      .cls-2 {
        fill: #db4127;
      }

      .cls-3 {
        fill: #b81c24;
      }

      .cls-4 {
        fill: #fff;
      }
    </style>
  </defs>
  <path class="cls-4" d="M433.94,145.78l-53.91-5.37-.52-24.6h-109.21s0-17.06,0-17.06c.33-5.63,2.59-10.07,5.21-15.2.35-.69.71-1.39,1.06-2.09,7.62-.03,13.8-6.6,13.8-14.67s-6.22-14.67-13.85-14.67-13.85,6.58-13.85,14.67c0,.68.04,1.36.13,2.03l-4.03,2.88-1.02-8.56c3.29-2.71,5.39-6.93,5.39-11.58,0-8.09-6.22-14.67-13.85-14.67s-13.85,6.58-13.85,14.67c0,2.51.6,4.92,1.69,7.04l-4.68,5.9-3.41-12.3c2.28-2.65,3.63-6.15,3.63-9.88,0-8.09-6.22-14.67-13.85-14.67s-13.85,6.58-13.85,14.67c0,4.24,1.72,8.11,4.51,10.81l-3.88,11.54-4.64-5.98c1.12-2.14,1.74-4.58,1.74-7.13,0-8.09-6.22-14.67-13.85-14.67s-13.85,6.58-13.85,14.67c0,4.72,2.14,8.99,5.5,11.69l-.89,8.53-4.14-2.69c.11-.75.17-1.52.17-2.29,0-8.09-6.22-14.67-13.85-14.67s-13.85,6.58-13.85,14.67,6.21,14.67,13.85,14.67h.04c3.02,6.28,5.1,11.77,5.84,15.42h-.03v18.94h-3.19s-.7-1.15-.7-1.15v1.15s-105.09,0-105.09,0l-.16,24.69-53.3,5.04,38.1,30.85-31.76,37.36,90.75-9.64c.15,17.38,1.81,44.57,8.88,74.99,15.83,68.09,51.63,119.25,103.51,147.96l3.3,1.83,3.35-1.73c53.97-27.93,90.78-78.89,106.43-147.37,6.87-30.06,8.3-57.07,8.27-74.66l1.04-.59,89.87,9.34-31.46-37.4,38.49-30.71Z"/>
  <g>
    <path class="cls-1" d="M328.18,184.97H109.86s-14.28,168.15,108.24,235.94c127.36-65.9,110.08-235.94,110.08-235.94ZM218.22,407.39c-104.19-66.91-95.84-208.91-95.84-208.91h193.31s8.68,145.82-97.47,208.91Z"/>
    <g>
      <path class="cls-1" d="M258.68,201.83H127.69s-3.42,58.87,22.34,117.36l108.65-117.36Z"/>
      <path class="cls-1" d="M192.56,381.23c7.65,7.36,16.17,14.24,25.71,20.43,58.63-35.27,80.19-97.56,87.98-143.24l-113.7,122.81Z"/>
    </g>
    <path class="cls-2" d="M248.45,346.33c-.98.62-1.91,1.39-3.21,1.15-.74-.06-1.48-.13-2.22-.19-.26,0-.52-.01-.78-.02-.46.07-.92.14-1.38.21-3.52,0-7.05,0-10.57,0-.31-.02-.61-.03-.92-.05-.25,0-.49-.02-.74-.02-.04-.03-.08-.03-.12,0-1.09-.16-2.19-.32-3.28-.49-.13-.12-.25-.34-.38-.35-1.18-.03-2.35-.03-3.53,0-.16,0-.31.26-.46.39-.07.02-.15.04-.22.06-.31.06-.62.12-.93.18-.77.08-1.54.16-2.3.25-.87-.22-1.74-.58-2.52.21-.39.2-.93.31-1.14.63-.68,1.04-1.25,2.14-1.83,3.24-1.06,2-.26,5.71,1.54,7.19.15.23.25.54.47.68.54.35,1.12.62,1.69.93.42.73.99.6,1.59.27.92.21,1.31-.53,1.84-1.03.22-.07.43-.14.65-.21.7-.4,1.39-.81,2.09-1.21.3-.05.61-.09.91-.14,1.4-.68,2.78-1.38,4.2-2.03.36-.17.81-.14,1.22-.23,1.1-.24,2.2-.53,3.31-.73,1.46-.25,2.93-.43,4.39-.63.77,0,1.53,0,2.3,0,1.36.28,2.73.56,4.09.85.41.09.8.24,1.21.29,1.09.14,2.21.13,3.03,1.08.16.19.56.19.85.26.29.07.63.06.88.2,1.52.86,3.07,1.69,4.51,2.68.59.41.98,1.15,1.37,1.8.14.24.16.81,0,.95-.85.7-1.53,1.78-2.88,1.54-.22-.04-.49.02-.68-.08-1.37-.66-2.73-1.35-4.09-2.03-.23-.11-.46-.23-.7-.34-.46-.04-.92-.07-1.38-.11-.15-.05-.31-.1-.46-.15-1.16-1.1-2.64-1.14-4.09-1.14-3.1,0-6.2.03-9.29.1-.59.01-1.17.3-1.75.47-.79.23-1.58.48-2.37.72-.14.04-.32,0-.45.06-1.26.62-2.58,1.16-3.75,1.92-2.32,1.5-4.81,2.13-7.49,1.6-.77-.15-1.46-.89-2.12-1.44-.61-.51-1.12-1.13-1.68-1.71-.05-.08-.1-.16-.15-.24-1.38-1.76-2.08-3.83-2.77-5.91.37-.44.55-.86-.13-1.18,0-.77,0-1.53,0-2.3.64-.23.52-.56.14-.94.82-1.76,1.21-3.75,2.66-5.19.57-.57,1.18-1.11,1.77-1.67.23-.07.46-.13.69-.2,1.29-1,2.76-1.36,4.36-1.25.91-.07,1.82-.14,2.73-.21.85.01,1.7.02,2.55.03,1.75.02,3.51.03,5.26.05,0,0,.08.02.08.02l.09-.02c5.77.02,11.53,0,17.3.08,1.59.02,2.58-.65,3.27-1.97.32-.6.77-1.18.91-1.82.18-.83.28-1.76.07-2.56-.07-.27-1.2-.35-1.85-.35-2.71,0-5.42.05-8.13.09-.53.03-1.06.05-1.6.08-.92.06-1.84.12-2.76.19-.46-.07-.92-.15-1.38-.22-.31.13-.61.25-.92.38-.31.04-.63.08-.94.12-2.43.09-4.86.18-7.3.27-.72-.43-1.44-.65-2.1.11-2.37.03-4.75.05-7.12.08-1,0-1.99,0-2.99.01-.15,0-.31,0-.46,0-.31,0-.61,0-.92,0-5.97-.02-11.94-.04-17.91-.05-1.07,0-1.16.8-1.16,1.61,0,3.14.02,6.28.02,9.42-.01,4.9-.04,9.8-.07,14.7-.03.16-.07.33-.1.49-.24.38-.4.93-.75,1.11-.52.28-1.19.43-1.78.38-.27-.02-.64-.61-.72-.99-.17-.82-.25-1.66-.25-2.5-.01-9.8.02-19.59-.03-29.39,0-1.35-.43-2.7-.66-4.05.16-1.76.32-3.52.49-5.27-.03-.16-.07-.31-.1-.47.16-.49.32-.98.48-1.46.06,0,.11-.02.17-.03-.06-.01-.11-.03-.17-.04,0-.26,0-.51,0-.77l1.36-2.3c-.01-.08-.02-.16-.03-.23l.15-.92c1.02-1.42,2.22-2.59,4.05-2.86.31-.13.61-.25.92-.38.16-.08.31-.16.47-.25.92-.07,1.84-.14,2.75-.21,8.59-.07,17.19-.16,25.78-.19,8.03-.03,16.07.02,24.1.03.41.28.83.56,1.24.83.68.74,1.37,1.47,2.05,2.22.28.3.52.63.78.95.05.12.1.24.15.35.41,1.48.99,2.9.95,4.5-.03,1.38.3,2.76.33,4.14.03,1.49.02,3.01-.23,4.48-.41,2.46-.05,4.91-.07,7.36-.01,1.86-.28,3.63-1.18,5.16-.74,1.26-1.98,2.23-3,3.33-.27.07-.53.14-.8.21ZM194.21,318.49c-.13.24-.27.48-.4.72,0,0-.03.05-.03.05-.2.44-.4.88-.6,1.32-.25.61-.49,1.22-.74,1.83.13.11.26.22.4.33.38.04.75.12,1.13.12,13.24,0,26.49,0,39.73-.03,4.21,0,8.42-.08,12.63-.12l.58.13c2.62.06,3-.66,2.2-2.49-.14-1.4-1.39-1.85-2.26-2.63-.03-.07-.08-.11-.16-.13-.52-.07-1.05-.21-1.57-.21-2.83-.02-5.67-.04-8.5-.02-8.85.07-17.69.16-26.54.25-.31.05-.63.1-.94.15l-1.35.09c-.61.06-1.23.13-1.84.19-.15,0-.3.02-.45.03-.45-.36-.86-.49-1.16.17-.69,0-1.38.01-2.07.02-.23.02-.46.04-.69.06-2.3.07-4.6.14-6.89.21l-.46-.02ZM241.82,327.17c-.87.05-1.75.09-2.62.14-2.05.06-4.09.12-6.14.18-.31,0-.61,0-.92,0-.69,0-1.38,0-2.06,0-.23,0-.46,0-.69,0-2.9-.02-5.8-.09-8.71-.06-6.26.06-12.52.17-18.78.25-.6,0-1.19,0-1.79,0-.07.03-.12.08-.14.15l-1.17.02c-.53.06-1.07.12-1.6.18-.3.04-.6.08-.91.12-.93-.08-1.85-.2-2.78-.23-.22,0-.45.27-.68.41-.18.16-.36.32-.54.48-.13.24-.25.48-.38.72-.84,1.07-.41,2.01.27,2.94.07.07.13.15.2.22.48.07.96.21,1.45.21,5.49-.05,10.98-.13,16.48-.2l.69.21c1.14-.07,2.27-.14,3.41-.2,1.51-.07,3.02-.13,4.52-.23.2-.01.38-.26.57-.4,3.22-.08,6.43-.17,9.65-.25.71-.03,1.42-.05,2.13-.08.46-.03.91-.06,1.37-.08,1.9-.05,3.8-.08,5.7-.12.04.03.09.05.15.05,3.39.06,6.78.12,10.17.15.21,0,.45-.21.64-.36.97-.78.4-1.85.52-2.8.12-.91-.3-1.2-1.18-1.21-1.98-.02-3.97-.12-5.95-.19-.29-.01-.59-.03-.88-.04Z"/>
    <path class="cls-2" d="M275.61,294.21c-1.27.49-2.55.98-3.82,1.48-.42-.09-.84-.19-1.26-.28-.15-.05-.3-.1-.45-.15-.08.02-.16.04-.24.06-.08-.03-.15-.06-.23-.09-.16-.05-.31-.1-.47-.14-2.04-.49-4.08-.94-6.1-1.47-2.26-.59-4.5-1.24-6.75-1.86-.61-.22-1.22-.43-1.83-.65l-4.38-.45c-.09-.06-.17-.12-.26-.18l-5.71-.52c-.24-.05-.47-.09-.71-.14-.3-.06-.6-.11-.9-.17-.15-.04-.3-.08-.46-.13-.15-.04-.31-.09-.46-.13-.15-.03-.31-.06-.46-.08-2.84-.13-5.67-.26-8.51-.38-.23-.03-.46-.06-.69-.09-.61,0-1.23,0-1.84-.01-.09-.06-.18-.12-.27-.18-1.66-.42-3.3-.43-4.9.26-1.17.3-1.4.68-1.06,1.79-.11,1.07-.23,2.15-.34,3.22.03.24.07.48.1.71.32.14.65.29.97.43.84,0,1.68.01,2.52.02,1.76-.15,3.52-.31,5.29-.46.15.06.31.12.46.19.69.09,1.38.18,2.07.27.77.06,1.53.11,2.3.17.91.11,1.83.23,2.74.34.16.05.32.1.48.14,1.28.17,2.56.35,3.84.52.53.77,1.27.94,2.14.79.98.42,1.95.83,2.93,1.25.09.05.18.11.28.16.37.49.75.97,1.12,1.46.09.06.17.13.26.19.29.24.59.48.88.73.09,1.3.17,2.59.26,3.89-.69.53-1.38,1.07-2.07,1.6-.16.23-.32.46-.47.69-1.14.46-2.29.92-3.43,1.37-.15.04-.31.08-.46.11-.69.14-1.37.29-2.06.43-.15.07-.3.13-.44.2-1.22.14-2.44.32-3.67.41-1.69.12-3.38.18-5.07.26-.58-.34-1.15-.53-1.62.17-.38.01-.76.03-1.15.04-.79-.27-1.6-.61-2.3.19-6.04-.05-12.08-.1-18.12-.15-.24-.02-.48-.04-.72-.06-1.45,0-2.9,0-4.35,0l-2.08-.27c-1.99.01-3.99.06-5.98.02-.45,0-.89-.32-1.34-.45-.54-.16-1.09-.29-1.64-.44-.15-.04-.31-.09-.46-.13-2.18-.19-3.96-1.3-5.69-2.49-.34-.24-.64-.69-.74-1.1-.54-2.15.01-3.52,1.83-4.8.15-.23.29-.46.44-.69,2-.79,4-1.59,6-2.38.15-.05.31-.09.46-.14.69-.05,1.37-.1,2.06-.15.15-.04.31-.07.46-.11,2.15-.48,4.29-.96,6.44-1.44.15-.05.31-.11.46-.16.54-.04,1.07-.08,1.61-.12.15-.03.31-.06.46-.1,1.89-.7,3.81-1.34,5.66-2.14.31-.13.38-.99.41-1.53.04-.68-.08-1.38-.13-2.07-.06-.06-.13-.13-.19-.19-.79-.09-1.57-.25-2.36-.25-1.49,0-2.98.01-4.46.15-2.64.25-5.26.59-7.89.89-.15.03-.31.07-.46.1-.92.03-1.84.07-2.76.1-.23.04-.46.09-.69.13-1.31.28-2.62.56-3.94.84-1.06.22-2.12.42-3.19.63-.15.05-.31.09-.46.14-1.08.17-2.15.34-3.23.52-.08.05-.16.11-.24.16l-6.65,1.52c-.15.04-.3.07-.46.11-1.38.31-2.76.62-4.14.93-.41.21-.81.41-1.22.62h-.08s-.07.03-.07.03c-.31.03-.61.05-.92.08-1.09.06-2.18.19-3.26.14-.5-.02-.99-.4-1.46-.6.14-.5.35-.87.31-1.2-.16-1.32.56-1.8,1.71-2.06.99-.22,1.95-.58,2.92-.88.22-.04.45-.08.67-.12,1.31-.37,2.62-.74,3.93-1.11.09-.05.19-.11.28-.16,0,0-.02.02-.02.02.29-.12.58-.23.87-.35.17-.03.34-.07.51-.1.07-.02.14-.05.21-.07.08.02.15,0,.21-.05.09,0,.18,0,.27,0,.14-.02.29-.03.43-.05.31-.05.61-.09.92-.14.07-.02.15-.04.22-.07,2.33-.58,4.64-1.24,6.99-1.7,1.92-.38,3.89-.56,5.84-.74,1.85-.17,3.71-.23,5.56-.34.23-.04.47-.08.7-.12.76-.1,1.53-.19,2.29-.29.16-.06.31-.11.47-.17.71-.08,1.41-.19,2.12-.25,3.21-.29,6.47-.05,9.64-.9.84-.23,1.21-.58,1.13-1.5-.09-1.1.01-2.21-.04-3.32-.06-1.1.4-1.69,1.49-1.87.51-.08,1.01-.29,1.51-.44.15-.07.3-.14.46-.21,2.01-.31,3.95-.1,5.77.87.07.15.14.31.21.46,0,.3,0,.6,0,.9.06.09.13.17.19.26l.07-.02c0,1,0,2,0,3,.08.15.16.31.24.46l.19.2c.69.35,1.37.71,2.06,1.06.16.03.31.07.47.1,3.04,0,6.07,0,9.07.67,1.21.26,2.49.2,3.73.26,2.01.09,4.02.16,6.03.24.46.15.92.29,1.38.44.07.04.15.08.22.13.16.03.32.05.48.08,1.62.09,3.23.18,4.85.27.05,0,.1,0,.15,0,1.78.36,3.56.73,5.34,1.09l.47-.11c3.54.93,7.09,1.82,10.61,2.79,1.83.51,3.78.79,5.24,2.2.07,0,.14-.01.2-.02,0,0,0-.01,0-.01.08.04.15.09.23.13.16.18.33.36.49.54,0,.34,0,.69.01,1.03ZM243.4,303.1c.01-.16.02-.32.03-.47-.05-.15-.1-.3-.15-.45-1.24-1.11-2.54-2.11-4.26-2.34-.08-.06-.16-.12-.24-.18-.91-.24-1.83-.49-2.74-.73-.47-.71-1.04-.51-1.62-.17-2.73-.32-5.47-.63-8.19-.98-.51-.07-1-.33-1.48-.55-.54-.25-1.05-.55-1.58-.83-.39-.67-.78-.68-1.15.01-1.06.4-2.1.9-3.2,1.18-1.55.39-3.14.65-4.73.92-3.29.55-6.59.99-9.86,1.63-2.13.42-4.33.69-6.17,2.05-.46.34-1.09.79-.47,1.2,1.42.95,2.91,1.89,4.51,2.41,1.33.42,2.85.22,4.29.3.63.02,1.27.05,1.9.07,3.89,0,7.77-.01,11.66-.02.54-.01,1.08-.02,1.61-.03,3.5,0,7,0,10.5-.03,2.52-.02,5.09.26,7.45-1,.31-.17.74-.1,1.12-.14.15-.04.31-.08.46-.12.7-.42,1.4-.83,2.11-1.25.06-.15.13-.31.19-.46Z"/>
    <polygon class="cls-3" points="103.43 176.68 103.42 196.92 65.96 176.68 103.43 176.68"/>
    <polygon class="cls-3" points="372.41 176.68 335.58 197.32 335.37 176.73 372.41 176.68"/>
    <polygon class="cls-2" points="218.82 218.11 225.95 238.21 246.84 238.24 230.06 250.73 236.32 271.19 219.03 258.51 201.88 271.19 208.04 251.23 190.99 238.36 212.15 238.2 218.82 218.11"/>
    <polygon class="cls-2" points="262.48 246.17 265.59 255.81 275.48 255.89 267.58 261.34 270.58 271.38 262.63 265.44 254.33 271.38 257.37 261.74 249.49 255.89 259.48 255.81 262.48 246.17"/>
    <polygon class="cls-2" points="290.5 255.89 292.37 261.68 298.3 261.72 293.56 265 295.36 271.02 290.59 267.46 285.61 271.02 287.44 265.24 282.7 261.73 288.7 261.68 290.5 255.89"/>
    <polygon class="cls-2" points="176.11 246.47 179.22 256.11 189.1 256.19 181.2 261.64 184.2 271.68 176.26 265.74 167.95 271.68 170.99 262.05 163.11 256.19 173.1 256.11 176.11 246.47"/>
    <polygon class="cls-2" points="147.84 256 149.71 261.79 155.64 261.83 150.9 265.1 152.7 271.13 147.93 267.57 142.95 271.13 144.78 265.35 140.04 261.83 146.04 261.79 147.84 256"/>
    <rect class="cls-1" x="174.69" y="103.92" width="88.6" height="13.44"/>
    <g>
      <path class="cls-1" d="M276.55,59.17c-3.76,0-6.81,3.41-6.81,7.62,0,1.78.55,3.41,1.46,4.71l-15.98,11.41c-.91.65-2.18.09-2.31-1.02l-2.71-22.79c3.34-.49,5.91-3.68,5.91-7.55,0-4.21-3.05-7.62-6.81-7.62s-6.81,3.41-6.81,7.62c0,3,1.55,5.59,3.8,6.83l-15.12,19.09c-.75.94-2.25.64-2.57-.52l-7.6-27.43c2.69-1.02,4.63-3.86,4.63-7.21,0-4.21-3.05-7.62-6.81-7.62s-6.81,3.41-6.81,7.62c0,3.9,2.61,7.1,5.99,7.56l-9.04,26.91c-.37,1.11-1.83,1.36-2.55.43l-14.59-18.82c2.27-1.24,3.83-3.83,3.83-6.85,0-4.21-3.05-7.62-6.81-7.62s-6.81,3.41-6.81,7.62c0,3.89,2.61,7.09,5.97,7.56l-2.35,22.46c-.11,1.09-1.34,1.68-2.26,1.08l-16.57-10.76c1.09-1.35,1.75-3.13,1.75-5.09,0-4.21-3.05-7.62-6.81-7.62s-6.81,3.41-6.81,7.62,3.05,7.62,6.81,7.62c1.38,0,2.66-.46,3.74-1.25,3.04,5.76,8.93,17.78,9.46,25.12l88.29.21c.56-10.32,6.11-17.16,9.42-25.41,1.09.84,2.42,1.34,3.85,1.34,3.76,0,6.81-3.41,6.81-7.62s-3.05-7.62-6.81-7.62ZM208.53,94.48h-8.24v-.08c0-1.64,1.29-3.52,3.86-5.43,2.13-1.59,2.69-2.08,2.69-3.55,0-1.29-.73-2.35-2.43-2.35s-2.48.79-2.78,2.45h-1.29c.24-2.07,1.59-3.56,4.07-3.56,2.7,0,3.81,1.73,3.81,3.41,0,1.88-.83,2.56-3.18,4.38-1.82,1.4-2.87,2.49-3.22,3.57h6.92l-.21,1.15ZM214.63,94.7c-3.38,0-4.27-3.27-4.27-6.36s.96-6.36,4.33-6.36,4.23,3.25,4.23,6.27-.82,6.45-4.28,6.45ZM224.79,94.48h-1.33v-10.76c-.65.51-2.03,1.13-2.76,1.27v-1.08c.9-.27,2.13-.98,3.06-1.8h1.04v12.37ZM231.83,94.7c-2.74,0-4.01-1.69-4.23-3.33h1.31c.28,1.18,1.23,2.23,2.99,2.23,2.02,0,2.83-1.31,2.83-2.73,0-1.81-1.2-2.58-3.01-2.58h-.83v-1.08h.67c1.81,0,2.62-.72,2.62-2.09,0-1.21-.85-2.05-2.38-2.05-1.61,0-2.27.83-2.55,1.95h-1.27c.21-1.51,1.33-3.06,3.87-3.06s3.69,1.53,3.69,3.13c0,1.51-.94,2.29-1.74,2.56v.04c1.26.37,2.31,1.34,2.31,3.15,0,2.02-1.31,3.85-4.29,3.85Z"/>
      <path class="cls-1" d="M214.71,83.11c-2.44,0-2.94,2.54-2.94,5.25,0,2.36.47,5.23,2.87,5.23s2.89-2.74,2.89-5.33c0-2.36-.46-5.15-2.82-5.15Z"/>
    </g>
    <g>
      <path class="cls-2" d="M317.26,139.32c-.62-.88-1.33-1.53-2.15-1.97-.82-.43-1.69-.65-2.61-.65-.78,0-1.48.13-2.12.38-.63.25-1.2.61-1.7,1.07-.5.46-.93,1.02-1.3,1.67-.37.65-.67,1.39-.91,2.19-.24.81-.42,1.67-.53,2.61-.12.93-.18,1.91-.18,2.92,0,1.82.18,3.4.54,4.74.36,1.34.84,2.45,1.46,3.33.61.88,1.33,1.53,2.15,1.97.82.43,1.69.65,2.61.65.78,0,1.48-.13,2.12-.38.63-.25,1.2-.61,1.7-1.07.5-.46.93-1.02,1.3-1.67s.67-1.39.91-2.19.42-1.67.53-2.6c.12-.93.18-1.91.18-2.93,0-1.82-.18-3.4-.54-4.74-.36-1.34-.84-2.45-1.46-3.33Z"/>
      <path class="cls-2" d="M295.48,139.32c-.62-.88-1.33-1.53-2.15-1.97-.82-.43-1.69-.65-2.61-.65-.78,0-1.48.13-2.12.38-.63.25-1.2.61-1.7,1.07-.5.46-.93,1.02-1.3,1.67-.37.65-.67,1.39-.91,2.19-.24.81-.42,1.67-.53,2.61-.12.93-.18,1.91-.18,2.92,0,1.82.18,3.4.54,4.74.36,1.34.84,2.45,1.46,3.33.61.88,1.33,1.53,2.15,1.97.82.43,1.69.65,2.61.65.78,0,1.48-.13,2.12-.38.63-.25,1.2-.61,1.7-1.07.5-.46.93-1.02,1.3-1.67s.67-1.39.91-2.19.42-1.67.53-2.6c.12-.93.18-1.91.18-2.93,0-1.82-.18-3.4-.54-4.74-.36-1.34-.84-2.45-1.46-3.33Z"/>
      <path class="cls-2" d="M416.05,151.07l-42.89-4.28-.51-23.95-306.97.02-.15,24.06-42.46,4.01,30.29,24.53-25.01,29.43,75.15-7.99-37.46-20.23h306.45s-36.84,20.64-36.84,20.64l74.69,7.76-24.89-29.59,30.6-24.42ZM113.37,143.3c-.56.99-1.03,1.88-1.41,2.66s-.69,1.43-.92,1.96c-.16.35-.3.69-.41,1.02-.11.32-.21.68-.29,1.06s-.14.81-.19,1.28c-.05.47-.09,1.03-.12,1.67-.02.42-.04.85-.05,1.3-.02.44-.04.91-.06,1.4-.02.49-.04,1.01-.05,1.56-.02.55-.04,1.15-.06,1.79l-2.38.3-.18-.02c.05-.89.09-1.76.13-2.62.04-.86.07-1.65.09-2.37.02-.72.04-1.35.05-1.88s.02-.93.02-1.17c0-.42-.03-.86-.1-1.31-.06-.46-.17-.94-.32-1.44-.16-.55-.35-1.14-.57-1.77-.22-.62-.45-1.25-.7-1.88-.25-.63-.5-1.25-.76-1.87s-.51-1.19-.75-1.72-.46-1.02-.67-1.46c-.21-.43-.38-.79-.52-1.07-.12-.25-.25-.45-.38-.62-.13-.17-.28-.3-.45-.4-.17-.1-.35-.17-.56-.22-.2-.04-.44-.06-.7-.06-.24,0-.49.02-.76.04-.26.03-.55.07-.85.11l-.11-.89c1.01-.25,1.85-.45,2.51-.59.67-.14,1.21-.21,1.63-.21s.76.08,1.01.25c.25.16.47.43.65.79.11.22.25.52.42.89.17.37.35.79.55,1.26.2.47.41.98.64,1.53.22.55.45,1.12.68,1.69.23.58.45,1.16.67,1.75.22.59.43,1.15.62,1.69.17.5.32.94.45,1.33.12.39.24.79.33,1.19h.06c.31-.74.63-1.49.96-2.25s.65-1.5.97-2.23c.32-.73.63-1.44.94-2.12.31-.68.6-1.32.88-1.92.28-.6.54-1.14.78-1.63s.45-.91.64-1.26c.12-.23.24-.4.37-.53.13-.13.26-.22.41-.29s.3-.11.46-.13c.16-.02.33-.02.51-.02.1,0,.21.01.34.03.13.02.26.05.39.08.13.04.26.08.38.14s.24.12.34.19c-.98,1.32-1.85,2.57-2.61,3.75-.76,1.18-1.41,2.27-1.97,3.26ZM139.58,158.68c-.38.15-.75.29-1.12.4s-.71.2-1.05.27c-.33.06-.64.1-.9.1-.5,0-.91-.1-1.22-.3-.31-.2-.56-.48-.74-.84s-.3-.79-.36-1.29c-.06-.5-.09-1.05-.09-1.65,0-.66.02-1.36.05-2.1.03-.73.08-1.5.13-2.29l-.1-.02c-.21.65-.47,1.31-.77,1.99s-.65,1.34-1.03,1.97c-.39.64-.82,1.23-1.29,1.79s-.99,1.05-1.54,1.47c-.56.42-1.16.75-1.81.99-.64.24-1.34.36-2.07.36-.78,0-1.45-.11-2.03-.32s-1.07-.51-1.48-.89c-.42-.38-.75-.83-1.02-1.35-.27-.52-.48-1.09-.63-1.71-.15-.62-.26-1.27-.32-1.96-.06-.69-.09-1.39-.09-2.11,0-.77.03-1.58.08-2.43s.12-1.71.2-2.56.16-1.69.26-2.49.18-1.54.26-2.21c.08-.67.14-1.24.2-1.73.05-.48.08-.83.08-1.04,0-.23-.02-.43-.06-.6-.04-.17-.12-.32-.24-.43-.12-.11-.28-.2-.48-.26-.2-.06-.46-.08-.78-.08-.23,0-.49.01-.78.04-.29.03-.62.07-.99.12l-.11-.85c1.02-.24,1.88-.42,2.58-.55.7-.13,1.28-.19,1.74-.19.33,0,.61.04.83.1.22.07.4.18.53.33.13.15.22.33.28.56.05.22.08.49.08.8,0,.18-.03.51-.08.99s-.12,1.06-.2,1.75c-.08.68-.17,1.44-.27,2.28-.1.84-.19,1.71-.27,2.62-.08.91-.15,1.82-.2,2.74-.05.92-.08,1.81-.08,2.66,0,.53.02,1.06.05,1.6.03.54.09,1.06.19,1.55.09.49.23.96.4,1.39s.4.81.68,1.13.63.57,1.04.76.9.28,1.47.28c.67,0,1.33-.15,1.96-.46.63-.3,1.22-.73,1.77-1.27.55-.54,1.06-1.2,1.52-1.95.46-.75.87-1.58,1.21-2.49s.62-1.86.83-2.88c.21-1.02.34-2.06.39-3.13.02-.41.04-.81.06-1.19.02-.39.03-.78.05-1.19.02-.4.04-.82.06-1.26.02-.43.04-.9.07-1.4.03-.5.06-1.03.09-1.61.04-.58.08-1.21.13-1.9,0-.15.05-.28.13-.39s.18-.2.31-.28c.12-.07.26-.13.42-.17.15-.04.31-.06.47-.06.19,0,.41.02.64.08s.46.12.67.22c-.13,1.48-.25,2.9-.35,4.25s-.18,2.66-.25,3.94c-.07,1.28-.12,2.55-.15,3.8-.03,1.25-.04,2.53-.04,3.82,0,1,.01,1.87.04,2.61s.1,1.34.23,1.82c.12.48.31.84.56,1.07.25.23.6.35,1.05.35.27,0,.57-.03.9-.08.33-.05.73-.17,1.19-.35l.26.79c-.36.19-.73.36-1.11.51ZM152.63,143.3c-.56.99-1.03,1.88-1.41,2.66s-.69,1.43-.92,1.96c-.16.35-.3.69-.41,1.02-.11.32-.21.68-.29,1.06s-.14.81-.19,1.28c-.05.47-.09,1.03-.12,1.67-.02.42-.04.85-.05,1.3-.02.44-.04.91-.06,1.4-.02.49-.04,1.01-.05,1.56-.02.55-.04,1.15-.06,1.79l-2.38.3-.18-.02c.05-.89.09-1.76.13-2.62.04-.86.07-1.65.09-2.37.02-.72.04-1.35.05-1.88s.02-.93.02-1.17c0-.42-.03-.86-.1-1.31-.06-.46-.17-.94-.32-1.44-.16-.55-.35-1.14-.57-1.77-.22-.62-.45-1.25-.7-1.88-.25-.63-.5-1.25-.76-1.87s-.51-1.19-.75-1.72-.46-1.02-.67-1.46c-.21-.43-.38-.79-.52-1.07-.12-.25-.25-.45-.38-.62-.13-.17-.28-.3-.45-.4-.17-.1-.35-.17-.56-.22-.2-.04-.44-.06-.7-.06-.24,0-.49.02-.76.04-.26.03-.55.07-.85.11l-.11-.89c1.01-.25,1.85-.45,2.51-.59.67-.14,1.21-.21,1.63-.21s.76.08,1.01.25c.25.16.47.43.65.79.11.22.25.52.42.89.17.37.35.79.55,1.26.2.47.41.98.64,1.53.22.55.45,1.12.68,1.69.23.58.45,1.16.67,1.75.22.59.43,1.15.62,1.69.17.5.32.94.45,1.33.12.39.24.79.33,1.19h.06c.31-.74.63-1.49.96-2.25s.65-1.5.97-2.23c.32-.73.63-1.44.94-2.12.31-.68.6-1.32.88-1.92.28-.6.54-1.14.78-1.63s.45-.91.64-1.26c.12-.23.24-.4.37-.53.13-.13.26-.22.41-.29s.3-.11.46-.13c.16-.02.33-.02.51-.02.1,0,.21.01.34.03.13.02.26.05.39.08.13.04.26.08.38.14s.24.12.34.19c-.98,1.32-1.85,2.57-2.61,3.75-.76,1.18-1.41,2.27-1.97,3.26ZM162.97,139.81c-.02.64-.04,1.46-.07,2.46-.03,1-.07,2.15-.11,3.45s-.08,2.68-.13,4.14c-.04,1.46-.09,2.97-.14,4.53-.05,1.56-.09,3.1-.14,4.62l-2.38.3-.18-.02c.08-1.92.15-3.74.22-5.45s.12-3.38.17-5c.05-1.62.08-3.23.11-4.81s.04-3.22.04-4.89c0-.31-.01-.58-.04-.81-.03-.22-.1-.41-.21-.55-.11-.14-.26-.24-.46-.31-.2-.06-.46-.1-.79-.1-.22,0-.49.01-.81.04-.32.02-.66.06-1,.12l-.1-.83c.98-.25,1.83-.44,2.53-.56.71-.12,1.29-.18,1.75-.18s.78.06,1.02.18c.24.12.41.29.52.52s.18.51.2.85c.02.33.03.72.03,1.14,0,.15,0,.54-.03,1.18ZM186.57,136.25c-.33.46-.61,1.06-.85,1.81-.24.74-.44,1.57-.61,2.47-.17.91-.3,1.86-.41,2.86-.1,1-.19,2-.25,2.98-.06.99-.11,1.93-.14,2.84s-.05,1.72-.08,2.44c-.01.63-.03,1.24-.04,1.84s-.03,1.2-.04,1.8-.02,1.2-.03,1.82c0,.61,0,1.24,0,1.89l-1.22.16-.18-.02c-.2-.28-.46-.66-.77-1.13-.31-.47-.66-1.01-1.05-1.62-.39-.61-.81-1.27-1.26-2s-.92-1.47-1.4-2.26-.98-1.58-1.48-2.4-1-1.62-1.49-2.43-.97-1.58-1.43-2.35-.9-1.48-1.31-2.15c-.41-.67-.78-1.28-1.11-1.84-.33-.55-.62-1.03-.85-1.41-.01,1.48-.04,2.92-.07,4.32-.03,1.4-.07,2.75-.12,4.04-.05,1.29-.1,2.52-.16,3.68-.06,1.16-.12,2.24-.19,3.23-.05.7-.09,1.3-.14,1.8-.05.5-.11.91-.18,1.24-.07.33-.16.59-.26.79-.1.19-.23.34-.39.44-.15.1-.34.16-.55.19-.21.03-.47.04-.76.04h-.27c-.05,0-.12,0-.2,0-.08,0-.18,0-.31-.02l-.14-.1c.29-.65.54-1.37.77-2.18.22-.8.42-1.65.59-2.55.17-.9.31-1.83.44-2.79s.23-1.92.31-2.88c.08-.96.15-1.91.2-2.84.05-.93.09-1.82.12-2.66s.04-1.62.05-2.35c0-.72,0-1.35,0-1.89,0-.29-.02-.53-.07-.74-.04-.2-.12-.37-.24-.5-.12-.13-.28-.23-.48-.29-.2-.06-.46-.09-.78-.09-.23,0-.48.01-.77.04s-.61.07-.97.12l-.11-.88c.56-.13,1.07-.24,1.52-.34.45-.1.87-.18,1.23-.25s.7-.12,1-.16c.3-.04.57-.06.81-.06s.46.03.65.09c.18.06.35.16.51.29.16.13.31.31.46.54.15.22.32.5.5.83.31.55.66,1.16,1.05,1.83s.81,1.38,1.25,2.13c.44.75.9,1.52,1.38,2.31.48.8.96,1.59,1.45,2.4s.98,1.59,1.46,2.38c.48.78.95,1.53,1.4,2.25.45.72.88,1.39,1.28,2.02.41.63.77,1.19,1.1,1.69,0-1.79,0-3.42,0-4.89,0-1.47.02-2.8.04-3.98.02-1.18.04-2.24.07-3.15.03-.92.06-1.72.11-2.42.04-.69.09-1.28.15-1.77.06-.48.12-.88.2-1.2.06-.27.15-.49.26-.67s.24-.32.38-.43c.14-.11.3-.18.47-.23.17-.04.35-.06.54-.06.45,0,.91.1,1.39.29v.1ZM206.52,139.47c-.04.74-.08,1.62-.14,2.67l-.87-.02c0-.09.01-.18.02-.27s0-.18,0-.27c0-.46-.06-.9-.15-1.33s-.27-.82-.53-1.19c-.27-.38-.6-.72-.98-1-.38-.29-.79-.53-1.24-.73s-.93-.34-1.45-.44-1.04-.15-1.58-.15c-.94,0-1.79.14-2.55.43-.76.28-1.44.68-2.05,1.18s-1.12,1.1-1.56,1.78c-.44.69-.81,1.43-1.1,2.24-.29.81-.51,1.65-.65,2.54-.14.89-.21,1.79-.21,2.69,0,1.25.1,2.38.31,3.39s.5,1.91.87,2.7c.37.79.82,1.47,1.34,2.04.52.57,1.09,1.04,1.71,1.41.63.37,1.29.65,2.01.82.71.18,1.45.27,2.2.27.6,0,1.11-.04,1.52-.13.42-.08.75-.2,1.01-.34.26-.14.46-.31.59-.51.13-.2.21-.41.24-.63.05-.4.09-.84.11-1.33s.03-.96.03-1.43v-.9c0-.49-.04-.88-.11-1.16s-.2-.48-.38-.62c-.18-.14-.44-.22-.77-.25-.33-.03-.75-.04-1.26-.04h-.49c-.09,0-.19,0-.3,0-.11,0-.25,0-.42,0l-.07-.98c.11,0,.2.01.29.01h.66c.44,0,.91,0,1.4-.01.49,0,.96-.02,1.39-.02.43-.01.8-.02,1.12-.03.31,0,.51,0,.59,0,.36,0,.62.09.78.27.16.18.24.49.24.93,0,.27,0,.62-.02,1.03-.02.41-.04.88-.06,1.39-.02.51-.04,1.06-.07,1.65-.03.59-.05,1.19-.07,1.81,0,.24-.02.44-.05.61s-.07.3-.13.42c-.06.11-.15.21-.26.3s-.24.17-.41.25c-.19.1-.47.21-.82.33s-.77.23-1.24.33c-.47.1-.99.19-1.55.26-.56.07-1.15.1-1.76.1-.83,0-1.68-.07-2.54-.21-.87-.14-1.71-.38-2.52-.71s-1.59-.78-2.31-1.33c-.73-.55-1.36-1.24-1.9-2.07-.54-.83-.96-1.8-1.28-2.92-.31-1.12-.47-2.42-.47-3.89,0-1.04.11-2.09.33-3.14s.54-2.06.98-3.02c.43-.96.98-1.86,1.63-2.69.65-.83,1.41-1.56,2.28-2.17s1.85-1.1,2.94-1.45c1.09-.35,2.29-.53,3.6-.53.9,0,1.73.08,2.49.23.76.15,1.41.35,1.96.58.55.23.98.48,1.28.74.31.26.46.5.46.72,0,.46-.02,1.06-.05,1.8ZM235.96,154.86c-.25.71-.59,1.33-1.01,1.85-.42.52-.9.97-1.45,1.33s-1.11.65-1.7.87c-.59.22-1.18.38-1.76.48-.59.1-1.13.15-1.63.15-.66,0-1.28-.04-1.87-.14-.58-.09-1.09-.21-1.53-.36-.44-.15-.78-.32-1.03-.51-.25-.19-.38-.39-.38-.59,0-.45.02-1.09.05-1.93.03-.84.08-1.83.14-2.98l1.01.05c-.02.16-.03.31-.04.46,0,.15,0,.29,0,.44,0,.76.1,1.41.31,1.94.2.53.49.96.87,1.3.38.33.83.58,1.36.73s1.13.23,1.79.23,1.29-.09,1.88-.28c.6-.18,1.12-.46,1.57-.83.45-.37.81-.82,1.08-1.37.27-.54.4-1.17.4-1.89,0-.45-.06-.87-.19-1.25-.12-.38-.29-.73-.51-1.04-.22-.32-.47-.61-.77-.88-.3-.27-.62-.52-.97-.76s-.72-.46-1.11-.68c-.39-.22-.78-.44-1.18-.66-.42-.23-.84-.46-1.26-.7-.42-.24-.82-.5-1.2-.77-.38-.27-.74-.57-1.06-.89s-.61-.67-.85-1.06c-.24-.39-.42-.82-.56-1.28-.14-.47-.21-.99-.21-1.55,0-.71.09-1.37.27-1.98s.43-1.17.76-1.68c.32-.51.71-.97,1.16-1.37s.95-.74,1.48-1.02,1.11-.49,1.72-.63,1.24-.22,1.88-.22c.29,0,.61.02.94.06.33.04.67.09,1,.17.33.07.65.16.96.27.3.1.57.22.81.36.23.13.42.28.56.44.14.16.21.33.21.51,0,.19,0,.44,0,.73,0,.29-.02.62-.03.99,0,.37-.03.78-.04,1.21-.02.44-.04.9-.07,1.39l-1.01-.05c.02-.24.03-.47.03-.69,0-.66-.1-1.25-.3-1.75-.2-.5-.47-.93-.83-1.26-.36-.34-.79-.59-1.29-.76s-1.06-.26-1.68-.26-1.19.1-1.72.31-.99.49-1.38.85c-.39.36-.69.8-.91,1.3-.22.5-.33,1.05-.33,1.65,0,.49.06.93.19,1.33.13.4.3.76.53,1.1.22.33.49.64.8.91.31.27.64.53,1,.78s.74.48,1.14.7c.4.22.81.44,1.21.66.42.22.84.45,1.26.68.42.23.82.48,1.2.75s.73.55,1.06.86.6.66.84,1.03c.24.38.42.79.56,1.25.14.45.21.96.21,1.51,0,.92-.13,1.73-.38,2.44ZM256.07,155.78c-.66.72-1.32,1.33-1.99,1.82-.67.49-1.34.88-2.01,1.18-.68.3-1.36.52-2.04.65s-1.37.2-2.05.2c-.9,0-1.76-.13-2.58-.38-.82-.25-1.58-.61-2.28-1.08-.7-.47-1.34-1.03-1.91-1.7-.57-.67-1.05-1.41-1.45-2.24-.4-.83-.71-1.73-.93-2.7s-.33-2-.33-3.08.11-2.09.32-3.14c.21-1.05.53-2.06.94-3.02.42-.96.94-1.86,1.57-2.7.63-.84,1.37-1.56,2.21-2.18s1.79-1.1,2.85-1.45c1.06-.35,2.22-.53,3.49-.53.88,0,1.69.08,2.43.24s1.39.36,1.93.59c.54.23.96.48,1.27.75.31.27.46.51.46.73,0,.46-.02,1.06-.05,1.8-.03.74-.08,1.62-.13,2.67l-.87-.03c0-.09.01-.18.02-.27s0-.17,0-.27c0-.46-.06-.9-.16-1.32-.1-.42-.27-.82-.53-1.2-.27-.38-.59-.72-.96-1.01s-.78-.54-1.22-.74c-.44-.2-.91-.35-1.41-.46-.5-.1-1.01-.16-1.53-.16-.9,0-1.71.14-2.44.42s-1.39.66-1.96,1.15c-.58.49-1.08,1.07-1.5,1.75s-.78,1.4-1.05,2.19c-.28.79-.49,1.62-.62,2.49s-.21,1.75-.21,2.64c0,1.05.09,2.04.26,2.97.17.93.42,1.78.74,2.57.32.78.71,1.48,1.16,2.11.45.62.96,1.15,1.53,1.58.56.43,1.18.76,1.84.99.66.23,1.35.34,2.08.34.51,0,1.03-.06,1.57-.17.54-.11,1.09-.28,1.64-.52.56-.24,1.12-.54,1.68-.9.57-.36,1.13-.8,1.69-1.31.05.03.12.06.19.1.07.04.13.09.2.14.06.05.11.11.16.17s.06.12.06.18c0,.04-.03.1-.08.17ZM279.15,158.76c-.41.15-.8.28-1.16.38-.36.1-.69.18-1,.23-.31.05-.6.08-.88.08-.38,0-.72-.07-1-.22s-.53-.38-.72-.71c-.19-.33-.33-.76-.43-1.29-.09-.54-.14-1.2-.14-1.99v-2.28c0-.53,0-1.03,0-1.51,0-.48,0-.94.01-1.39,0-.45.01-.88.02-1.3,0-.42.02-.84.03-1.25-.92,0-1.82,0-2.68.01-.87,0-1.73.02-2.6.04-.87.02-1.74.05-2.64.08-.89.03-1.82.07-2.78.12l-.34,11.23-2.38.3-.18-.02c.08-1.92.15-3.74.22-5.47s.12-3.41.17-5.04c.05-1.63.08-3.24.11-4.82s.04-3.19.04-4.82c0-.31-.02-.58-.07-.81-.04-.22-.13-.41-.25-.55-.12-.14-.29-.24-.5-.31-.21-.06-.48-.1-.81-.1-.44,0-1.01.05-1.7.15l-.1-.83c.97-.25,1.79-.43,2.47-.56.68-.12,1.24-.19,1.7-.19s.8.06,1.05.18c.25.12.44.29.57.52s.2.51.23.85.04.72.04,1.14c0,.28,0,.64-.02,1.08-.01.44-.03.97-.05,1.61-.02.64-.04,1.38-.07,2.22-.03.85-.05,1.81-.08,2.9.96-.03,1.89-.06,2.78-.08s1.77-.04,2.63-.06c.87-.02,1.73-.03,2.6-.04.87-.01,1.76-.02,2.69-.03.02-.68.04-1.36.06-2.05.02-.68.05-1.4.09-2.16.03-.76.07-1.57.13-2.44.05-.87.11-1.83.19-2.89,0-.15.05-.27.13-.38.08-.1.19-.19.32-.26.13-.07.28-.12.44-.16s.32-.05.48-.05c.19,0,.4.02.63.08s.44.12.66.22c-.1,1.1-.19,2.15-.27,3.15-.08,1-.14,1.98-.2,2.93-.05.95-.1,1.89-.14,2.81-.04.93-.07,1.86-.09,2.8-.02.94-.04,1.91-.04,2.89,0,.98-.01,2.01-.01,3.08,0,.71.03,1.31.09,1.82.06.5.17.91.32,1.23s.35.55.61.7c.25.15.57.22.95.22.27,0,.56-.02.85-.07.29-.04.66-.15,1.09-.31l.28.82c-.48.21-.93.39-1.34.54ZM300.01,149.8c-.19,1.1-.47,2.13-.84,3.1-.38.97-.84,1.87-1.39,2.68-.55.81-1.2,1.51-1.95,2.1-.74.59-1.57,1.05-2.5,1.37s-1.94.49-3.04.49c-1.34,0-2.58-.23-3.7-.7-1.12-.47-2.09-1.16-2.9-2.09-.81-.92-1.44-2.07-1.9-3.45s-.68-2.97-.68-4.79c0-1.15.09-2.27.28-3.37.19-1.1.47-2.13.84-3.1.37-.97.84-1.86,1.39-2.68.55-.81,1.2-1.51,1.95-2.1.74-.59,1.57-1.05,2.5-1.37.92-.33,1.94-.49,3.04-.49,1.34,0,2.58.23,3.7.7s2.09,1.16,2.9,2.09c.81.92,1.44,2.07,1.9,3.45.45,1.38.68,2.97.68,4.78,0,1.15-.09,2.27-.28,3.37ZM321.79,149.8c-.19,1.1-.47,2.13-.84,3.1-.38.97-.84,1.87-1.39,2.68-.55.81-1.2,1.51-1.95,2.1-.74.59-1.57,1.05-2.5,1.37s-1.94.49-3.04.49c-1.34,0-2.58-.23-3.7-.7-1.12-.47-2.09-1.16-2.9-2.09-.81-.92-1.44-2.07-1.9-3.45s-.68-2.97-.68-4.79c0-1.15.09-2.27.28-3.37.19-1.1.47-2.13.84-3.1.37-.97.84-1.86,1.39-2.68.55-.81,1.2-1.51,1.95-2.1.74-.59,1.57-1.05,2.5-1.37.92-.33,1.94-.49,3.04-.49,1.34,0,2.58.23,3.7.7s2.09,1.16,2.9,2.09c.81.92,1.44,2.07,1.9,3.45.45,1.38.68,2.97.68,4.78,0,1.15-.09,2.27-.28,3.37ZM339.55,156.49c-.14.76-.33,1.36-.59,1.8-.25.44-.56.74-.93.91s-.78.26-1.25.26c-.35,0-.75-.03-1.17-.1-.43-.07-.89-.14-1.4-.23s-1.05-.16-1.64-.23c-.59-.07-1.22-.1-1.91-.1-.61,0-1.27.04-1.98.12-.71.08-1.44.21-2.19.39l-.18-.02c.11-.92.21-1.9.3-2.95.08-1.05.15-2.15.21-3.28.06-1.14.11-2.3.15-3.49s.07-2.38.09-3.57c.02-1.19.03-2.36.04-3.52,0-1.16.01-2.27.01-3.35,0-.31-.02-.58-.04-.81-.03-.22-.1-.41-.21-.55-.11-.14-.26-.24-.46-.31-.2-.06-.46-.1-.79-.1-.22,0-.49.01-.81.04-.32.02-.66.06-1,.12l-.1-.83c.98-.25,1.83-.44,2.53-.56.71-.12,1.29-.18,1.75-.18s.78.06,1.02.18c.24.12.41.29.52.52s.17.51.2.85.03.72.03,1.14c0,.03,0,.25,0,.66,0,.41-.02.96-.04,1.65-.02.69-.04,1.48-.06,2.39s-.05,1.87-.08,2.88-.07,2.05-.11,3.12c-.04,1.07-.08,2.11-.13,3.12-.05,1.01-.1,1.97-.16,2.87-.06.9-.12,1.69-.18,2.37.64-.09,1.25-.16,1.81-.21.57-.04,1.1-.06,1.59-.06.69,0,1.33.02,1.93.06s1.19.06,1.77.06c.41,0,.77-.06,1.09-.18.32-.12.59-.33.82-.63.23-.3.42-.71.57-1.22.15-.51.27-1.17.35-1.97l.87.07c0,1.18-.08,2.14-.21,2.9Z"/>
    </g>
  </g>
</svg>