<?xml version="1.0" encoding="UTF-8"?>
<svg id="_图层_1" data-name="图层 1" xmlns="http://www.w3.org/2000/svg" xmlns:xlink="http://www.w3.org/1999/xlink" viewBox="0 0 2738.59 1540.46">
  <defs>
    <style>
      .cls-1, .cls-2 {
        fill: none;
        stroke: #fff;
        stroke-miterlimit: 10;
        stroke-width: 1.5px;
      }

      .cls-3 {
        clip-path: url(#clippath);
      }

      .cls-4 {
        clip-path: url(#clippath-1);
      }

      .cls-5 {
        clip-path: url(#clippath-2);
      }

      .cls-6, .cls-7, .cls-2 {
        opacity: .6;
      }

      .cls-8 {
        opacity: .53;
      }

      .cls-9 {
        opacity: .9;
      }

      .cls-7 {
        font-family: STXingkaiSC-Bold, 'Xingkai SC';
        font-size: 48.74px;
        font-weight: 700;
        glyph-orientation-vertical: 0deg;
        text-orientation: upright;
        writing-mode: tb;
      }

      .cls-7, .cls-10 {
        fill: #fff;
      }

      .cls-11 {
        fill: #868484;
      }

      .cls-11, .cls-12, .cls-13, .cls-10 {
        stroke-width: 0px;
      }

      .cls-12 {
        fill: #db4127;
      }

      .cls-13 {
        fill: #b81c24;
      }
    </style>
    <clipPath id="clippath">
      <polygon class="cls-1" points="758.1 1333.52 752.73 1451.06 816.93 1451.06 825.09 1331.76 758.1 1333.52"/>
    </clipPath>
    <clipPath id="clippath-1">
      <polygon class="cls-2" points="93.53 989.49 49.92 996.61 -1.44 966.15 -1.44 943.87 93.53 989.49"/>
    </clipPath>
    <clipPath id="clippath-2">
      <polygon class="cls-2" points="708.54 1089.53 1387.61 1171.49 1717.03 1275.29 1819.7 1277.89 2261.98 1458.57 1138.5 1511.19 1138.5 1344.93 708.54 1089.53"/>
    </clipPath>
  </defs>
  <line class="cls-2" x1="-1.44" y1="849.39" x2="276" y2="966.15"/>
  <polyline class="cls-2" points="-1.44 966.15 49.92 996.61 438.81 933.15 1132.85 1344.35 1138.02 1510.61 1101.73 1510.61 745.87 1247.9 691.22 1247.9 680.98 1489.03"/>
  <polyline class="cls-2" points="728.43 1247.76 718.66 1488.4 1101.73 1510.61"/>
  <polyline class="cls-2" points="3.72 1480.15 1138.02 1510.61 2267.15 1458.57 2735.63 1458.57"/>
  <polygon class="cls-2" points="399.08 1088.62 399.08 1133.04 671.85 1322.04 674 1251.07 651.68 1251.07 399.08 1088.62"/>
  <polygon class="cls-2" points="385.83 1067.68 378.85 1120.35 3.72 1164.13 3.72 1112.73 385.83 1067.68"/>
  <polyline class="cls-2" points="6.94 1197.13 389.32 1160.33 666.33 1347.52 662.84 1454.13 496.07 1454.13 496.73 1493.39"/>
  <polyline class="cls-2" points="6.94 1458.57 393.5 1452.86 385.83 1490.41"/>
  <line class="cls-2" x1="3.72" y1="1124.79" x2="384.31" y2="1079.09"/>
  <line class="cls-2" x1="93.53" y1="989.49" x2="1.77" y2="945.42"/>
  <polyline class="cls-2" points="24.28 860.21 111.73 858.56 126.9 768.23 159.24 782.15"/>
  <polyline class="cls-2" points="135.28 786.14 294.31 782.15 302.98 696.67 317.86 696.67 360.17 710.2"/>
  <polyline class="cls-2" points="317.16 711.47 473.93 706.82 478.12 621.15 493 621.15 543.71 632.58"/>
  <polyline class="cls-2" points="1207.98 640.11 1352.65 634.9 1350.32 369.67 1468.44 365.44 1481.23 863.98 1456.34 863.98 1456.11 874.35 1533.79 872.87 1533.79 849.39 1550.08 848.75 1550.08 835"/>
  <polyline class="cls-2" points="490.21 634.69 1179.84 607.19 1179.84 590.91 1188.77 590.95"/>
  <line class="cls-2" x1="36.02" y1="1120.91" x2="32.91" y2="1160.33"/>
  <line class="cls-2" x1="104.78" y1="1112.66" x2="101.53" y2="1152.72"/>
  <line class="cls-2" x1="175.09" y1="1104.21" x2="171.22" y2="1143.4"/>
  <line class="cls-2" x1="246.16" y1="1095.68" x2="242.28" y2="1136.29"/>
  <line class="cls-2" x1="320.7" y1="1088.62" x2="316.44" y2="1127.63"/>
  <line class="cls-2" x1="21.53" y1="1195.73" x2="-.74" y2="1330.39"/>
  <line class="cls-2" x1="91.37" y1="1192.69" x2="52.82" y2="1457.9"/>
  <line class="cls-2" x1="161.15" y1="1186.98" x2="119.98" y2="1456.9"/>
  <line class="cls-2" x1="235.68" y1="1175.11" x2="194.02" y2="1452.86"/>
  <line class="cls-2" x1="309.56" y1="1168" x2="269.3" y2="1452.86"/>
  <line class="cls-2" x1="380.24" y1="1164.13" x2="341.16" y2="1453.64"/>
  <line class="cls-2" x1="415.13" y1="1270.11" x2="392.83" y2="1456.16"/>
  <line class="cls-2" x1="475.46" y1="1218.54" x2="445.83" y2="1468.09"/>
  <line class="cls-2" x1="516.23" y1="1246.09" x2="496.07" y2="1454.13"/>
  <line class="cls-2" x1="597.32" y1="1300.89" x2="583.29" y2="1454.13"/>
  <line class="cls-2" x1="508.88" y1="1321.94" x2="590.31" y2="1321.94"/>
  <line class="cls-2" x1="553.5" y1="1325.29" x2="541.64" y2="1452.86"/>
  <line class="cls-2" x1="389.15" y1="1474.17" x2="496.41" y2="1474.44"/>
  <line class="cls-2" x1="4.53" y1="1298.52" x2="517.7" y2="1263.06"/>
  <line class="cls-2" x1="3.72" y1="1405.91" x2="348.79" y2="1397.09"/>
  <line class="cls-2" x1="38.24" y1="1296.2" x2="20.88" y2="1405.47"/>
  <line class="cls-2" x1="179.17" y1="1286.46" x2="160.38" y2="1401.9"/>
  <line class="cls-2" x1="325.75" y1="1276.33" x2="307.71" y2="1398.14"/>
  <line class="cls-2" x1="460.65" y1="1128.21" x2="459.13" y2="1173.96"/>
  <line class="cls-2" x1="524.56" y1="1169.32" x2="522.59" y2="1219.55"/>
  <line class="cls-2" x1="590.31" y1="1211.6" x2="587.25" y2="1264.4"/>
  <line class="cls-2" x1="651.68" y1="1251.07" x2="650.99" y2="1304.71"/>
  <g class="cls-6">
    <g class="cls-3">
      <line class="cls-1" x1="751.06" y1="1333.73" x2="828.14" y2="1331.46"/>
      <line class="cls-1" x1="751.04" y1="1335.63" x2="828.13" y2="1333.35"/>
      <line class="cls-1" x1="751.03" y1="1337.52" x2="828.12" y2="1335.25"/>
      <line class="cls-1" x1="751.01" y1="1339.42" x2="828.1" y2="1337.15"/>
      <line class="cls-1" x1="751" y1="1341.32" x2="828.09" y2="1339.04"/>
      <line class="cls-1" x1="750.98" y1="1343.21" x2="828.07" y2="1340.94"/>
      <line class="cls-1" x1="750.97" y1="1345.11" x2="828.06" y2="1342.84"/>
      <line class="cls-1" x1="750.96" y1="1347.01" x2="828.04" y2="1344.74"/>
      <line class="cls-1" x1="750.94" y1="1348.9" x2="828.03" y2="1346.63"/>
      <line class="cls-1" x1="750.93" y1="1350.8" x2="828.02" y2="1348.53"/>
      <line class="cls-1" x1="750.91" y1="1352.7" x2="828" y2="1350.43"/>
      <line class="cls-1" x1="750.9" y1="1354.6" x2="827.99" y2="1352.32"/>
      <line class="cls-1" x1="750.88" y1="1356.49" x2="827.97" y2="1354.22"/>
      <line class="cls-1" x1="750.87" y1="1358.39" x2="827.96" y2="1356.12"/>
      <line class="cls-1" x1="750.85" y1="1360.29" x2="827.94" y2="1358.02"/>
      <line class="cls-1" x1="750.84" y1="1362.18" x2="827.93" y2="1359.91"/>
      <line class="cls-1" x1="750.83" y1="1364.08" x2="827.91" y2="1361.81"/>
      <line class="cls-1" x1="750.81" y1="1365.98" x2="827.9" y2="1363.71"/>
      <line class="cls-1" x1="750.8" y1="1367.88" x2="827.89" y2="1365.6"/>
      <line class="cls-1" x1="750.78" y1="1369.77" x2="827.87" y2="1367.5"/>
      <line class="cls-1" x1="750.77" y1="1371.67" x2="827.86" y2="1369.4"/>
      <line class="cls-1" x1="750.75" y1="1373.57" x2="827.84" y2="1371.3"/>
      <line class="cls-1" x1="750.74" y1="1375.46" x2="827.83" y2="1373.19"/>
      <line class="cls-1" x1="750.73" y1="1377.36" x2="827.81" y2="1375.09"/>
      <line class="cls-1" x1="750.71" y1="1379.26" x2="827.8" y2="1376.99"/>
      <line class="cls-1" x1="750.7" y1="1381.16" x2="827.79" y2="1378.88"/>
      <line class="cls-1" x1="750.68" y1="1383.05" x2="827.77" y2="1380.78"/>
      <line class="cls-1" x1="750.67" y1="1384.95" x2="827.76" y2="1382.68"/>
      <line class="cls-1" x1="750.65" y1="1386.85" x2="827.74" y2="1384.58"/>
      <line class="cls-1" x1="750.64" y1="1388.74" x2="827.73" y2="1386.47"/>
      <line class="cls-1" x1="750.63" y1="1390.64" x2="827.71" y2="1388.37"/>
      <line class="cls-1" x1="750.61" y1="1392.54" x2="827.7" y2="1390.27"/>
      <line class="cls-1" x1="750.6" y1="1394.44" x2="827.69" y2="1392.16"/>
      <line class="cls-1" x1="750.58" y1="1396.33" x2="827.67" y2="1394.06"/>
      <line class="cls-1" x1="750.57" y1="1398.23" x2="827.66" y2="1395.96"/>
      <line class="cls-1" x1="750.55" y1="1400.13" x2="827.64" y2="1397.86"/>
      <line class="cls-1" x1="750.54" y1="1402.02" x2="827.63" y2="1399.75"/>
      <line class="cls-1" x1="750.52" y1="1403.92" x2="827.61" y2="1401.65"/>
      <line class="cls-1" x1="750.51" y1="1405.82" x2="827.6" y2="1403.55"/>
      <line class="cls-1" x1="750.5" y1="1407.72" x2="827.58" y2="1405.44"/>
      <line class="cls-1" x1="750.48" y1="1409.61" x2="827.57" y2="1407.34"/>
      <line class="cls-1" x1="750.47" y1="1411.51" x2="827.56" y2="1409.24"/>
      <line class="cls-1" x1="750.45" y1="1413.41" x2="827.54" y2="1411.14"/>
      <line class="cls-1" x1="750.44" y1="1415.3" x2="827.53" y2="1413.03"/>
      <line class="cls-1" x1="750.42" y1="1417.2" x2="827.51" y2="1414.93"/>
      <line class="cls-1" x1="750.41" y1="1419.1" x2="827.5" y2="1416.83"/>
      <line class="cls-1" x1="750.4" y1="1421" x2="827.48" y2="1418.72"/>
      <line class="cls-1" x1="750.38" y1="1422.89" x2="827.47" y2="1420.62"/>
      <line class="cls-1" x1="750.37" y1="1424.79" x2="827.46" y2="1422.52"/>
      <line class="cls-1" x1="750.35" y1="1426.69" x2="827.44" y2="1424.42"/>
      <line class="cls-1" x1="750.34" y1="1428.58" x2="827.43" y2="1426.31"/>
      <line class="cls-1" x1="750.32" y1="1430.48" x2="827.41" y2="1428.21"/>
      <line class="cls-1" x1="750.31" y1="1432.38" x2="827.4" y2="1430.11"/>
      <line class="cls-1" x1="750.29" y1="1434.28" x2="827.38" y2="1432"/>
      <line class="cls-1" x1="750.28" y1="1436.17" x2="827.37" y2="1433.9"/>
      <line class="cls-1" x1="750.27" y1="1438.07" x2="827.35" y2="1435.8"/>
      <line class="cls-1" x1="750.25" y1="1439.97" x2="827.34" y2="1437.7"/>
      <line class="cls-1" x1="750.24" y1="1441.86" x2="827.33" y2="1439.59"/>
      <line class="cls-1" x1="750.22" y1="1443.76" x2="827.31" y2="1441.49"/>
      <line class="cls-1" x1="750.21" y1="1445.66" x2="827.3" y2="1443.39"/>
      <line class="cls-1" x1="750.19" y1="1447.56" x2="827.28" y2="1445.28"/>
      <line class="cls-1" x1="750.18" y1="1449.45" x2="827.27" y2="1447.18"/>
      <line class="cls-1" x1="750.17" y1="1451.35" x2="827.25" y2="1449.08"/>
      <line class="cls-1" x1="750.15" y1="1453.25" x2="827.24" y2="1450.97"/>
    </g>
    <polygon class="cls-1" points="758.1 1333.52 752.73 1451.06 816.93 1451.06 825.09 1331.76 758.1 1333.52"/>
  </g>
  <g>
    <g class="cls-4">
      <g>
        <g>
          <polygon class="cls-2" points="95.51 996.16 -9.24 1002.27 -8.93 1006.67 95.82 1000.55 95.51 996.16"/>
          <polygon class="cls-11" points="98.56 1000.72 -10.14 1007.07 -9.92 1010.24 98.78 1003.9 98.56 1000.72"/>
        </g>
        <g>
          <polygon class="cls-2" points="96 987.74 -8.75 993.85 -8.43 998.25 96.32 992.13 96 987.74"/>
          <polygon class="cls-11" points="99.05 992.3 -9.65 998.65 -9.43 1001.83 99.27 995.48 99.05 992.3"/>
        </g>
        <g>
          <polygon class="cls-2" points="96.5 979.32 -8.25 985.44 -7.94 989.83 96.81 983.71 96.5 979.32"/>
          <polygon class="cls-11" points="99.54 983.88 -9.16 990.23 -8.93 993.41 99.77 987.06 99.54 983.88"/>
        </g>
        <g>
          <polygon class="cls-2" points="96.99 970.9 -7.76 977.02 -7.45 981.41 97.3 975.29 96.99 970.9"/>
          <polygon class="cls-11" points="100.04 975.46 -8.66 981.81 -8.44 984.99 100.26 978.64 100.04 975.46"/>
        </g>
        <g>
          <polygon class="cls-2" points="97.48 962.48 -7.27 968.6 -6.96 972.99 97.79 966.87 97.48 962.48"/>
          <polygon class="cls-11" points="100.53 967.04 -8.17 973.39 -7.95 976.57 100.75 970.22 100.53 967.04"/>
        </g>
        <g>
          <polygon class="cls-2" points="97.98 954.06 -6.77 960.18 -6.46 964.57 98.29 958.45 97.98 954.06"/>
          <polygon class="cls-11" points="101.02 958.62 -7.68 964.97 -7.45 968.15 101.25 961.8 101.02 958.62"/>
        </g>
        <g>
          <polygon class="cls-2" points="98.47 945.64 -6.28 951.76 -5.97 956.15 98.78 950.04 98.47 945.64"/>
          <polygon class="cls-11" points="101.52 950.2 -7.19 956.55 -6.96 959.73 101.74 953.38 101.52 950.2"/>
        </g>
        <g>
          <polygon class="cls-2" points="98.96 937.22 -5.79 943.34 -5.48 947.74 99.27 941.62 98.96 937.22"/>
          <polygon class="cls-11" points="102.01 941.78 -6.69 948.13 -6.47 951.31 102.23 944.96 102.01 941.78"/>
        </g>
      </g>
    </g>
    <polygon class="cls-2" points="93.53 989.49 49.92 996.61 -1.44 966.15 -1.44 943.87 93.53 989.49"/>
  </g>
  <polyline class="cls-2" points="76.9 859.22 99.69 722.9 120.63 713.59 164.35 723.74 187.61 708.94 299.89 727.14"/>
  <polygon class="cls-2" points="105.74 757.38 108.77 737.91 119.23 735.17 163.66 741.41 161.56 758.64 116.91 752.51 105.74 757.38"/>
  <polyline class="cls-2" points="159.24 781.28 159.24 769.22 116.21 764.99 105.74 766.05 102.95 784.08 111.56 780.64 124.56 782.15"/>
  <polygon class="cls-2" points="97.37 816.18 99.93 797.56 110.39 794.6 122.31 795.55 119.66 811.34 107.14 811.1 97.37 816.18"/>
  <path class="cls-2" d="M95.04,840.29l2.33-13.96,9.54-2.33h10.63l-2.61,15.52s-7.56-1.77-9.18-1.56c-1.63.21-10.7,2.33-10.7,2.33Z"/>
  <polygon class="cls-2" points="258.36 734.32 263.01 735.17 259.02 782.98 254.35 783.18 258.36 734.32"/>
  <polygon class="cls-2" points="192.11 728.26 298.16 744.18 296.49 760.7 190.71 744.48 192.11 728.26"/>
  <polygon class="cls-2" points="188.4 757.16 295.26 772.84 294.31 782.15 251.96 783.21 186.06 773.94 188.4 757.16"/>
  <polygon class="cls-2" points="133.5 811.88 289.22 806.24 285.92 842.9 131.09 849.25 133.5 811.88"/>
  <polygon class="cls-2" points="126.21 856.58 126.21 853.62 284.37 848.33 284.37 851.29 126.21 856.58"/>
  <path class="cls-2" d="M306,805.18c.93-.21,41.17-1.48,41.17-1.48l-3.49,38.07-39.77,1.69,2.09-38.29Z"/>
  <polygon class="cls-2" points="301.12 847.48 343.68 846 342.52 849.25 299.89 850.66 301.12 847.48"/>
  <line class="cls-2" x1="382.08" y1="812.37" x2="477.88" y2="810.26"/>
  <line class="cls-2" x1="470.44" y1="885.35" x2="477.88" y2="810.26"/>
  <line class="cls-2" x1="374.58" y1="886.21" x2="470.44" y2="885.35"/>
  <line class="cls-2" x1="382.08" y1="812.37" x2="374.58" y2="886.21"/>
  <line class="cls-2" x1="388.34" y1="886.09" x2="395.78" y2="818.93"/>
  <line class="cls-2" x1="475.33" y1="818.93" x2="395.78" y2="818.93"/>
  <line class="cls-2" x1="488.58" y1="808.99" x2="483.23" y2="883.02"/>
  <line class="cls-2" x1="590.22" y1="807.29" x2="488.58" y2="808.99"/>
  <line class="cls-2" x1="583.94" y1="879" x2="590.22" y2="807.29"/>
  <line class="cls-2" x1="483.23" y1="883.02" x2="583.94" y2="879"/>
  <line class="cls-2" x1="508.12" y1="810.04" x2="502.09" y2="882.27"/>
  <line class="cls-2" x1="484.94" y1="859.35" x2="584.64" y2="855.31"/>
  <line class="cls-2" x1="488.12" y1="829.08" x2="506.59" y2="828.42"/>
  <line class="cls-2" x1="317.86" y1="696.67" x2="317.16" y2="711.47"/>
  <line class="cls-2" x1="313.91" y1="734.32" x2="311.58" y2="772.6"/>
  <line class="cls-2" x1="469.74" y1="729.67" x2="313.91" y2="734.32"/>
  <line class="cls-2" x1="466.25" y1="766.89" x2="469.74" y2="729.67"/>
  <line class="cls-2" x1="311.58" y1="772.6" x2="466.25" y2="766.89"/>
  <line class="cls-2" x1="313.15" y1="746.81" x2="466.72" y2="742.99"/>
  <line class="cls-2" x1="336.91" y1="746.22" x2="335.52" y2="771.72"/>
  <line class="cls-2" x1="361.74" y1="746.22" x2="360.35" y2="771.72"/>
  <line class="cls-2" x1="388.37" y1="744.56" x2="386.97" y2="770.06"/>
  <line class="cls-2" x1="415.04" y1="744.56" x2="413.64" y2="769.24"/>
  <line class="cls-2" x1="441.33" y1="743.73" x2="439.94" y2="768.41"/>
  <line class="cls-2" x1="491.68" y1="659.72" x2="488.58" y2="715"/>
  <line class="cls-2" x1="550.59" y1="711.47" x2="488.58" y2="715"/>
  <line class="cls-2" x1="551.85" y1="691.87" x2="550.59" y2="711.47"/>
  <line class="cls-2" x1="558.98" y1="691.87" x2="551.85" y2="691.87"/>
  <line class="cls-2" x1="566.73" y1="697.51" x2="558.98" y2="691.87"/>
  <line class="cls-2" x1="568.01" y1="657.77" x2="566.02" y2="711"/>
  <line class="cls-2" x1="491.68" y1="659.72" x2="568.01" y2="657.77"/>
  <line class="cls-2" x1="499.73" y1="659.35" x2="496.65" y2="715.14"/>
  <line class="cls-2" x1="575.42" y1="699.07" x2="576.97" y2="657.61"/>
  <line class="cls-2" x1="646.59" y1="656.34" x2="576.97" y2="657.61"/>
  <line class="cls-2" x1="646.12" y1="652.95" x2="576.97" y2="655.95"/>
  <line class="cls-2" x1="576.66" y1="657.32" x2="576.97" y2="655.95"/>
  <line class="cls-2" x1="646.12" y1="652.95" x2="644.42" y2="697.41"/>
  <line class="cls-2" x1="575.42" y1="699.07" x2="644.42" y2="697.41"/>
  <line class="cls-2" x1="558.98" y1="691.87" x2="557.46" y2="711.47"/>
  <line class="cls-2" x1="746.99" y1="683.98" x2="754.9" y2="684.19"/>
  <line class="cls-2" x1="746.29" y1="701.67" x2="746.99" y2="683.98"/>
  <line class="cls-2" x1="557.46" y1="711.47" x2="746.29" y2="701.67"/>
  <line class="cls-2" x1="754.9" y1="684.19" x2="754.43" y2="700.92"/>
  <line class="cls-2" x1="943.29" y1="676.15" x2="950.27" y2="676.36"/>
  <line class="cls-2" x1="989.11" y1="718.03" x2="950.27" y2="676.36"/>
  <line class="cls-2" x1="943.29" y1="676.15" x2="943.06" y2="693.71"/>
  <line class="cls-2" x1="754.43" y1="700.92" x2="943.06" y2="693.71"/>
  <line class="cls-2" x1="950.27" y1="676.36" x2="950.41" y2="760.71"/>
  <line class="cls-2" x1="756.29" y1="685.03" x2="763.74" y2="686.51"/>
  <line class="cls-2" x1="662.79" y1="652.88" x2="661.86" y2="689.48"/>
  <line class="cls-2" x1="746.64" y1="688.42" x2="661.86" y2="689.48"/>
  <line class="cls-2" x1="763.74" y1="686.51" x2="817.23" y2="684.93"/>
  <line class="cls-2" x1="819.32" y1="646.11" x2="817.23" y2="684.93"/>
  <line class="cls-2" x1="662.64" y1="656.34" x2="819.12" y2="650.61"/>
  <line class="cls-2" x1="662.43" y1="667.04" x2="818.55" y2="660.49"/>
  <line class="cls-2" x1="683.25" y1="655.45" x2="681.63" y2="688.95"/>
  <line class="cls-2" x1="698.59" y1="654.89" x2="697.44" y2="689.03"/>
  <line class="cls-2" x1="744.2" y1="653.33" x2="742.34" y2="690.89"/>
  <line class="cls-2" x1="761.41" y1="652.59" x2="760.01" y2="684.93"/>
  <line class="cls-2" x1="576.49" y1="670.3" x2="645.58" y2="667.1"/>
  <line class="cls-2" x1="576.19" y1="690.96" x2="644.74" y2="688.95"/>
  <line class="cls-2" x1="589.76" y1="657.37" x2="588.83" y2="698.74"/>
  <line class="cls-2" x1="633.29" y1="656.97" x2="632.36" y2="697.31"/>
  <line class="cls-2" x1="661.42" y1="694.36" x2="746.65" y2="692.55"/>
  <line class="cls-2" x1="754.7" y1="691.36" x2="818.28" y2="688.95"/>
  <line class="cls-2" x1="817.58" y1="684.82" x2="817.58" y2="688.43"/>
  <line class="cls-2" x1="661.86" y1="689.48" x2="661.42" y2="694.36"/>
  <line class="cls-2" x1="662.79" y1="652.88" x2="819.32" y2="646.11"/>
  <line class="cls-2" x1="834.68" y1="645.06" x2="834.21" y2="683.55"/>
  <line class="cls-2" x1="993.77" y1="638.29" x2="992.14" y2="677.42"/>
  <line class="cls-2" x1="834.21" y1="683.55" x2="943.18" y2="679.53"/>
  <line class="cls-2" x1="952.8" y1="679.07" x2="992.14" y2="677.42"/>
  <line class="cls-2" x1="834.64" y1="647.8" x2="992.95" y2="642.73"/>
  <line class="cls-2" x1="993.77" y1="638.29" x2="834.68" y2="645.06"/>
  <line class="cls-2" x1="834.5" y1="659.22" x2="991.91" y2="653.48"/>
  <line class="cls-2" x1="854.19" y1="647.17" x2="853.77" y2="682.83"/>
  <line class="cls-2" x1="905.82" y1="645.52" x2="904.95" y2="680.94"/>
  <line class="cls-2" x1="925.25" y1="645.26" x2="924.55" y2="679.11"/>
  <line class="cls-2" x1="975.64" y1="643.23" x2="974.27" y2="678.25"/>
  <line class="cls-2" x1="834.44" y1="688.43" x2="943.18" y2="683.34"/>
  <line class="cls-2" x1="956.98" y1="683.55" x2="992.95" y2="681.54"/>
  <line class="cls-2" x1="992.95" y1="681.54" x2="992.95" y2="692.55"/>
  <line class="cls-2" x1="967.95" y1="693.71" x2="992.95" y2="692.55"/>
  <line class="cls-2" x1="1008.42" y1="637.65" x2="1008.19" y2="680.17"/>
  <line class="cls-2" x1="1170.53" y1="631.94" x2="1170.07" y2="671.29"/>
  <line class="cls-2" x1="1008.42" y1="637.65" x2="1170.53" y2="631.94"/>
  <line class="cls-2" x1="1009.81" y1="676.15" x2="1129.13" y2="671.29"/>
  <line class="cls-2" x1="1139.13" y1="671.29" x2="1170.07" y2="671.29"/>
  <line class="cls-2" x1="1009.81" y1="681.54" x2="1129.37" y2="678.25"/>
  <line class="cls-2" x1="1008.36" y1="649.07" x2="1170.3" y2="645.26"/>
  <line class="cls-2" x1="1149.42" y1="633.08" x2="1149.4" y2="670.39"/>
  <line class="cls-2" x1="1102.38" y1="634.8" x2="1101.9" y2="671.29"/>
  <line class="cls-2" x1="1085.38" y1="634.94" x2="1084.51" y2="673.1"/>
  <line class="cls-2" x1="1025.15" y1="637.06" x2="1024.7" y2="676.57"/>
  <line class="cls-2" x1="151.68" y1="881.01" x2="73.7" y2="881.01"/>
  <line class="cls-2" x1="151.68" y1="913.83" x2="151.68" y2="881.01"/>
  <line class="cls-2" x1="159.24" y1="855.48" x2="159.24" y2="878.5"/>
  <line class="cls-2" x1="339.9" y1="871.58" x2="159.24" y2="878.5"/>
  <line class="cls-2" x1="342.52" y1="849.25" x2="339.9" y2="871.58"/>
  <line class="cls-2" x1="159.24" y1="878.5" x2="175.92" y2="868.99"/>
  <line class="cls-2" x1="340.81" y1="863.84" x2="175.92" y2="868.99"/>
  <line class="cls-2" x1="159.24" y1="855.48" x2="175.92" y2="868.99"/>
  <line class="cls-2" x1="167.99" y1="900.97" x2="336.21" y2="899.24"/>
  <line class="cls-2" x1="330.59" y1="950.81" x2="336.21" y2="899.24"/>
  <line class="cls-2" x1="167.58" y1="920.52" x2="167.99" y2="900.97"/>
  <line class="cls-2" x1="332.96" y1="929.08" x2="178.29" y2="925.03"/>
  <line class="cls-2" x1="474.16" y1="954.1" x2="479.16" y2="902.27"/>
  <line class="cls-2" x1="582.3" y1="900.11" x2="479.16" y2="902.27"/>
  <line class="cls-2" x1="576.59" y1="976.18" x2="582.3" y2="900.11"/>
  <line class="cls-2" x1="511.13" y1="976" x2="576.59" y2="976.18"/>
  <line class="cls-2" x1="505.1" y1="910.48" x2="579.44" y2="907.77"/>
  <line class="cls-2" x1="500.97" y1="969.98" x2="505.1" y2="910.48"/>
  <line class="cls-2" x1="503.03" y1="928.18" x2="580.19" y2="928.18"/>
  <line class="cls-2" x1="525.26" y1="909.12" x2="519.59" y2="976.02"/>
  <line class="cls-2" x1="543.86" y1="909.12" x2="539.4" y2="976.09"/>
  <line class="cls-2" x1="563.76" y1="907.77" x2="557.58" y2="976.13"/>
  <line class="cls-2" x1="310.43" y1="777.35" x2="309" y2="794.6"/>
  <line class="cls-2" x1="372.69" y1="776.49" x2="310.43" y2="777.35"/>
  <line class="cls-2" x1="309" y1="794.6" x2="372.22" y2="792.48"/>
  <line class="cls-2" x1="374.59" y1="760.7" x2="372.69" y2="794.6"/>
  <line class="cls-2" x1="382.67" y1="760.7" x2="374.59" y2="760.7"/>
  <line class="cls-2" x1="395.78" y1="769.5" x2="382.67" y2="760.7"/>
  <line class="cls-2" x1="381.93" y1="780.59" x2="382.67" y2="760.7"/>
  <line class="cls-2" x1="381.93" y1="780.59" x2="609.86" y2="774.27"/>
  <line class="cls-2" x1="610.58" y1="751.42" x2="609.86" y2="774.27"/>
  <line class="cls-2" x1="617.88" y1="751.42" x2="610.58" y2="751.42"/>
  <line class="cls-2" x1="707.71" y1="810.58" x2="617.88" y2="751.42"/>
  <line class="cls-2" x1="611.14" y1="880.22" x2="617.88" y2="751.42"/>
  <line class="cls-2" x1="480.8" y1="777.85" x2="481.53" y2="757.31"/>
  <line class="cls-2" x1="542.13" y1="776.92" x2="541.9" y2="756.07"/>
  <line class="cls-2" x1="481.53" y1="757.31" x2="541.9" y2="756.07"/>
  <line class="cls-2" x1="558.98" y1="775.68" x2="560.91" y2="734.34"/>
  <line class="cls-2" x1="735.34" y1="769.75" x2="736.41" y2="728.51"/>
  <line class="cls-2" x1="560.91" y1="734.34" x2="736.41" y2="728.51"/>
  <line class="cls-2" x1="750.94" y1="768.49" x2="821.6" y2="766.89"/>
  <line class="cls-2" x1="822.44" y1="744.5" x2="821.6" y2="766.89"/>
  <line class="cls-2" x1="831.11" y1="744.28" x2="822.44" y2="744.5"/>
  <line class="cls-2" x1="831.59" y1="765.9" x2="831.11" y2="744.28"/>
  <line class="cls-2" x1="846.56" y1="752.93" x2="831.11" y2="744.28"/>
  <line class="cls-2" x1="750.94" y1="768.49" x2="753.16" y2="727.86"/>
  <line class="cls-2" x1="932.58" y1="721.16" x2="753.16" y2="727.86"/>
  <line class="cls-2" x1="932.35" y1="761.57" x2="932.58" y2="721.16"/>
  <line class="cls-2" x1="831.59" y1="765.9" x2="1060.68" y2="757.9"/>
  <line class="cls-2" x1="983.44" y1="730.02" x2="1127.93" y2="725.48"/>
  <line class="cls-2" x1="1130.07" y1="667.56" x2="1130.07" y2="755.09"/>
  <line class="cls-2" x1="1137.2" y1="667.99" x2="1130.07" y2="667.56"/>
  <line class="cls-2" x1="1141.47" y1="671.29" x2="1137.2" y2="667.99"/>
  <line class="cls-2" x1="1137.67" y1="742.55" x2="1137.2" y2="667.99"/>
  <line class="cls-2" x1="1060.68" y1="757.9" x2="1060.44" y2="735.42"/>
  <line class="cls-2" x1="1066.85" y1="735.64" x2="1060.44" y2="735.42"/>
  <line class="cls-2" x1="1075.41" y1="743.42" x2="1066.85" y2="735.64"/>
  <line class="cls-2" x1="1066.85" y1="757.47" x2="1066.85" y2="735.64"/>
  <line class="cls-2" x1="1296.89" y1="749.47" x2="1296.89" y2="726.99"/>
  <line class="cls-2" x1="1304.97" y1="748.39" x2="1305.06" y2="726.99"/>
  <line class="cls-2" x1="1296.89" y1="726.99" x2="1305.06" y2="726.99"/>
  <line class="cls-2" x1="1319.23" y1="730.67" x2="1305.06" y2="726.99"/>
  <line class="cls-2" x1="1066.85" y1="757.47" x2="1296.89" y2="749.47"/>
  <line class="cls-2" x1="1437.55" y1="743.96" x2="1305.02" y2="748.17"/>
  <line class="cls-2" x1="1437.56" y1="744.28" x2="1436.85" y2="722.24"/>
  <line class="cls-2" x1="1443.27" y1="721.27" x2="1436.85" y2="722.24"/>
  <line class="cls-2" x1="1450.04" y1="997.15" x2="1443.27" y2="721.27"/>
  <line class="cls-2" x1="1460.62" y1="782.15" x2="1443.27" y2="721.27"/>
  <line class="cls-2" x1="1460.82" y1="863.98" x2="1460.62" y2="782.15"/>
  <line class="cls-2" x1="814.48" y1="871.69" x2="611.14" y2="880.22"/>
  <line class="cls-2" x1="707.71" y1="810.58" x2="815.9" y2="808.14"/>
  <line class="cls-2" x1="814.48" y1="871.69" x2="815.9" y2="808.14"/>
  <line class="cls-2" x1="664.4" y1="818.93" x2="815.73" y2="815.85"/>
  <line class="cls-2" x1="664.05" y1="837" x2="815.34" y2="832.94"/>
  <line class="cls-2" x1="660.74" y1="878.14" x2="664.05" y2="837"/>
  <polygon class="cls-2" points="835.39 849.1 838.83 796.37 1049.98 789.24 1049.03 842.19 835.39 849.1"/>
  <polygon class="cls-2" points="833.49 875.96 833.49 854.29 1047.84 846.73 1047.84 864.45 833.49 875.96"/>
  <line class="cls-2" x1="833.49" y1="856.88" x2="1044.99" y2="849.97"/>
  <line class="cls-2" x1="1044.97" y1="864.6" x2="1044.99" y2="849.97"/>
  <polygon class="cls-2" points="1069.35 841.21 1071.13 788.05 1287.86 782.15 1290 833.43 1069.35 841.21"/>
  <polygon class="cls-2" points="1069.35 864.23 1069.35 845.43 1290 839.27 1290 857.28 1069.35 864.23"/>
  <line class="cls-2" x1="1069.35" y1="845.43" x2="1287.15" y2="843.16"/>
  <line class="cls-2" x1="1287.86" y1="857.28" x2="1287.15" y2="843.16"/>
  <line class="cls-2" x1="560.35" y1="746.23" x2="736.09" y2="740.7"/>
  <line class="cls-2" x1="601.3" y1="744.94" x2="598.42" y2="774.59"/>
  <line class="cls-2" x1="632.83" y1="743.95" x2="631.99" y2="760.7"/>
  <line class="cls-2" x1="672.23" y1="742.71" x2="670.46" y2="771.51"/>
  <line class="cls-2" x1="704.25" y1="741.7" x2="704.25" y2="771.51"/>
  <line class="cls-2" x1="650.05" y1="772.6" x2="735.34" y2="769.75"/>
  <line class="cls-2" x1="752.42" y1="741.37" x2="930.33" y2="735.53"/>
  <line class="cls-2" x1="793.09" y1="740.03" x2="791.66" y2="767.57"/>
  <line class="cls-2" x1="864.02" y1="738.45" x2="865.11" y2="764.73"/>
  <line class="cls-2" x1="902.14" y1="736.46" x2="902.88" y2="765.03"/>
  <line class="cls-2" x1="837.7" y1="813.68" x2="1049.98" y2="806.53"/>
  <line class="cls-2" x1="882.94" y1="794.88" x2="881.14" y2="847.62"/>
  <line class="cls-2" x1="967.43" y1="792.03" x2="966.3" y2="844.86"/>
  <line class="cls-2" x1="1009.81" y1="790.59" x2="1009.81" y2="843.46"/>
  <line class="cls-2" x1="902.51" y1="811.68" x2="902.51" y2="846.93"/>
  <line class="cls-2" x1="922.48" y1="810.82" x2="921.77" y2="845.75"/>
  <line class="cls-2" x1="946.13" y1="810.1" x2="946.13" y2="845.52"/>
  <line class="cls-2" x1="987.34" y1="808.64" x2="987.36" y2="843.46"/>
  <line class="cls-2" x1="1070.57" y1="804.9" x2="1288.56" y2="798.76"/>
  <line class="cls-2" x1="1117.47" y1="789.24" x2="1115.69" y2="839.27"/>
  <line class="cls-2" x1="1071.05" y1="790.59" x2="1287.96" y2="784.52"/>
  <line class="cls-2" x1="1159.54" y1="788.11" x2="1158.84" y2="838.06"/>
  <line class="cls-2" x1="1203.74" y1="786.88" x2="1204.06" y2="836.46"/>
  <line class="cls-2" x1="1245.44" y1="785.71" x2="1246.5" y2="834.97"/>
  <line class="cls-2" x1="1137.43" y1="803.02" x2="1136.01" y2="839.27"/>
  <line class="cls-2" x1="1181.87" y1="801.76" x2="1181.87" y2="838.3"/>
  <line class="cls-2" x1="1224.39" y1="800.57" x2="1223.72" y2="835.77"/>
  <polygon class="cls-2" points="599.7 898.27 809.84 892.11 806.99 944.95 595.96 953.06 599.7 898.27"/>
  <line class="cls-2" x1="602.26" y1="952.82" x2="605.11" y2="903.13"/>
  <line class="cls-2" x1="809.84" y1="895.78" x2="605.11" y2="903.13"/>
  <line class="cls-2" x1="648.66" y1="901.57" x2="645.49" y2="951.15"/>
  <line class="cls-2" x1="690.43" y1="900.07" x2="688.52" y2="950.68"/>
  <line class="cls-2" x1="732.71" y1="898.55" x2="731.53" y2="947.85"/>
  <line class="cls-2" x1="771.21" y1="897.17" x2="768.83" y2="946.42"/>
  <line class="cls-2" x1="604.38" y1="915.88" x2="809.84" y2="909.12"/>
  <line class="cls-2" x1="667.15" y1="913.82" x2="665.48" y2="950.39"/>
  <line class="cls-2" x1="712.81" y1="912.5" x2="711.1" y2="948.73"/>
  <line class="cls-2" x1="751.97" y1="911.03" x2="751.52" y2="947.08"/>
  <polygon class="cls-2" points="830.87 892.2 829.41 945.32 1044.98 939.44 1047.84 884.98 830.87 892.2"/>
  <line class="cls-2" x1="831.95" y1="945.25" x2="834.44" y2="894.06"/>
  <line class="cls-2" x1="1047.71" y1="887.58" x2="834.44" y2="894.06"/>
  <line class="cls-2" x1="833.79" y1="907.35" x2="1046.92" y2="902.47"/>
  <line class="cls-2" x1="879.71" y1="892.68" x2="878.28" y2="944.95"/>
  <line class="cls-2" x1="922.12" y1="891.4" x2="922.12" y2="942.79"/>
  <line class="cls-2" x1="963.48" y1="890.82" x2="963.48" y2="941.66"/>
  <line class="cls-2" x1="1006.23" y1="888.84" x2="1006.64" y2="940.49"/>
  <line class="cls-2" x1="899.29" y1="905.85" x2="898.94" y2="943.42"/>
  <line class="cls-2" x1="942.68" y1="904.86" x2="943.84" y2="942.2"/>
  <line class="cls-2" x1="985.57" y1="903.88" x2="984.51" y2="942.79"/>
  <g class="cls-6">
    <polygon class="cls-1" points="1066.85 939.12 1066.85 883.03 1234.75 878.17 1234.75 933.15 1066.85 939.12"/>
    <line class="cls-1" x1="1069.35" y1="939.03" x2="1071.13" y2="888.54"/>
    <line class="cls-1" x1="1234.75" y1="883.68" x2="1071.13" y2="888.54"/>
    <line class="cls-1" x1="1069.35" y1="899.57" x2="1234.75" y2="897.62"/>
    <line class="cls-1" x1="1111.42" y1="887.19" x2="1111.42" y2="937.35"/>
    <line class="cls-1" x1="1150.09" y1="884.98" x2="1150.07" y2="935.98"/>
    <line class="cls-1" x1="1192.69" y1="884.98" x2="1191.97" y2="936.2"/>
    <line class="cls-1" x1="1130.3" y1="898.85" x2="1130.7" y2="936.85"/>
    <line class="cls-1" x1="1170.58" y1="898.38" x2="1171.65" y2="935.39"/>
  </g>
  <g class="cls-6">
    <polygon class="cls-1" points="1263.11 934.09 1263.11 878.01 1398.21 873.15 1398.21 928.13 1263.11 934.09"/>
    <line class="cls-1" x1="1265.5" y1="934.01" x2="1267.21" y2="883.52"/>
    <line class="cls-1" x1="1398.21" y1="878.66" x2="1267.21" y2="883.52"/>
    <line class="cls-1" x1="1265.5" y1="894.54" x2="1398.21" y2="892.6"/>
    <line class="cls-1" x1="1305.82" y1="882.17" x2="1305.82" y2="932.33"/>
    <line class="cls-1" x1="1342.89" y1="879.96" x2="1342.87" y2="930.95"/>
    <line class="cls-1" x1="1383.72" y1="879.96" x2="1383.03" y2="931.18"/>
    <line class="cls-1" x1="1323.92" y1="893.83" x2="1324.31" y2="931.83"/>
    <line class="cls-1" x1="1362.53" y1="893.35" x2="1363.55" y2="930.37"/>
  </g>
  <g class="cls-6">
    <polygon class="cls-1" points="1262.38 1032.56 1262.38 970.13 1403 964.71 1403 1025.92 1262.38 1032.56"/>
    <line class="cls-1" x1="1264.47" y1="1032.46" x2="1265.96" y2="976.26"/>
    <line class="cls-1" x1="1403" y1="970.85" x2="1265.96" y2="976.26"/>
    <line class="cls-1" x1="1264.47" y1="988.53" x2="1403" y2="986.37"/>
    <line class="cls-1" x1="1299.7" y1="974.76" x2="1299.7" y2="1030.59"/>
    <line class="cls-1" x1="1332.1" y1="972.29" x2="1332.08" y2="1029.06"/>
    <line class="cls-1" x1="1367.77" y1="972.29" x2="1367.17" y2="1029.31"/>
    <line class="cls-1" x1="1315.52" y1="987.73" x2="1315.85" y2="1030.03"/>
    <line class="cls-1" x1="1349.25" y1="987.21" x2="1350.15" y2="1028.41"/>
  </g>
  <polygon class="cls-2" points="1417.6 846.73 1311.67 849.1 1310.67 778.97 1422.35 776.49 1424.02 853.86 1417.6 846.73"/>
  <line class="cls-2" x1="1417.6" y1="846.73" x2="1421.88" y2="1098.07"/>
  <line class="cls-2" x1="1437.21" y1="900.11" x2="1417.6" y2="846.73"/>
  <line class="cls-2" x1="1437.21" y1="999.09" x2="1437.21" y2="900.11"/>
  <line class="cls-2" x1="1437.21" y1="999.09" x2="1550.08" y2="999.09"/>
  <line class="cls-2" x1="595.96" y1="1026.26" x2="595.96" y2="996.07"/>
  <line class="cls-2" x1="659.29" y1="996.07" x2="595.96" y2="996.07"/>
  <line class="cls-2" x1="659.29" y1="1063.78" x2="659.29" y2="996.07"/>
  <line class="cls-2" x1="597.98" y1="1011.16" x2="659.29" y2="1011.16"/>
  <line class="cls-2" x1="617.94" y1="1011.16" x2="617.95" y2="1039.28"/>
  <line class="cls-2" x1="638.86" y1="1011.16" x2="639.38" y2="1051.98"/>
  <line class="cls-2" x1="936.03" y1="1088.14" x2="702.9" y2="1088.95"/>
  <line class="cls-2" x1="676.93" y1="1074.23" x2="676.88" y2="1026.26"/>
  <line class="cls-2" x1="937.1" y1="1020.16" x2="676.88" y2="1026.26"/>
  <line class="cls-2" x1="936.03" y1="1088.14" x2="937.1" y2="1020.16"/>
  <line class="cls-2" x1="676.9" y1="1046.42" x2="937.86" y2="1041.23"/>
  <line class="cls-2" x1="724.65" y1="1027.62" x2="722.5" y2="1088.81"/>
  <line class="cls-2" x1="775.98" y1="1025.22" x2="774.55" y2="1088.62"/>
  <line class="cls-2" x1="828.02" y1="1023.21" x2="826.24" y2="1088.62"/>
  <line class="cls-2" x1="878.99" y1="1021.52" x2="878.99" y2="1088.62"/>
  <line class="cls-2" x1="700.41" y1="1045.95" x2="700.4" y2="1088.14"/>
  <line class="cls-2" x1="749.25" y1="1044.98" x2="748.53" y2="1091.16"/>
  <line class="cls-2" x1="803.43" y1="1043.91" x2="802.71" y2="1088.26"/>
  <line class="cls-2" x1="855.1" y1="1042.88" x2="854.76" y2="1088.62"/>
  <line class="cls-2" x1="908.45" y1="1041.87" x2="909.16" y2="1088.14"/>
  <polyline class="cls-2" points="965.97 947.55 999.84 971.21 999.84 982.23 1234.75 976.56 1234.75 1034.1 985.04 1039.61 985.04 1029.56 994.13 1029.24 968.47 1013.03 965.97 1096.02 1418.31 1078.84"/>
  <polygon class="cls-2" points="666.31 974.13 595.96 974.13 595.96 957.27 806.99 950.14 806.4 982.23 829.8 982.23 829.41 950.14 957.42 950.14 957.42 979.64 666.31 985.48 666.31 974.13"/>
  <line class="cls-2" x1="692.21" y1="967.81" x2="666.31" y2="954.89"/>
  <line class="cls-2" x1="666.31" y1="974.13" x2="666.31" y2="954.89"/>
  <line class="cls-2" x1="957.42" y1="947.55" x2="965.97" y2="947.55"/>
  <line class="cls-2" x1="957.42" y1="950.14" x2="957.42" y2="947.55"/>
  <line class="cls-2" x1="959.91" y1="1120.34" x2="965.97" y2="947.55"/>
  <line class="cls-2" x1="999.84" y1="982.23" x2="999.13" y2="1017.57"/>
  <line class="cls-2" x1="1234.75" y1="1009.46" x2="999.13" y2="1017.57"/>
  <line class="cls-2" x1="1045.47" y1="1015.98" x2="1046" y2="980.83"/>
  <line class="cls-2" x1="1086.11" y1="1014.58" x2="1085.92" y2="979.62"/>
  <line class="cls-2" x1="1126.75" y1="1013.18" x2="1127.29" y2="978.36"/>
  <line class="cls-2" x1="1167.02" y1="1011.79" x2="1167.02" y2="977.16"/>
  <line class="cls-2" x1="1381.97" y1="1170.91" x2="702.9" y2="1088.95"/>
  <line class="cls-2" x1="1717.03" y1="1275.29" x2="1381.97" y2="1170.91"/>
  <line class="cls-2" x1="1819.7" y1="1277.89" x2="1717.03" y2="1275.29"/>
  <line class="cls-2" x1="2261.98" y1="1458.57" x2="1819.7" y2="1277.89"/>
  <line class="cls-2" x1="1430.43" y1="1099.59" x2="1042.44" y2="1129.93"/>
  <line class="cls-2" x1="2252.57" y1="1366.19" x2="1430.43" y2="1099.59"/>
  <line class="cls-2" x1="2261.98" y1="1458.57" x2="2252.57" y2="1366.19"/>
  <line class="cls-2" x1="2261.09" y1="1363.11" x2="2252.57" y2="1366.19"/>
  <line class="cls-2" x1="2271.94" y1="1458.57" x2="2261.09" y2="1363.11"/>
  <line class="cls-2" x1="1443.89" y1="1098.78" x2="1430.43" y2="1099.59"/>
  <line class="cls-2" x1="2261.09" y1="1363.11" x2="1443.89" y2="1098.78"/>
  <line class="cls-2" x1="1468.44" y1="365.44" x2="1483.67" y2="563.39"/>
  <line class="cls-2" x1="1487.47" y1="689.17" x2="1483.67" y2="563.39"/>
  <line class="cls-2" x1="1480.34" y1="689.5" x2="1732.72" y2="682.36"/>
  <line class="cls-2" x1="1732.72" y1="671.29" x2="1732.72" y2="682.36"/>
  <line class="cls-2" x1="1736.64" y1="641.19" x2="1732.72" y2="671.29"/>
  <line class="cls-2" x1="1743.18" y1="641.36" x2="1736.64" y2="641.19"/>
  <line class="cls-2" x1="1743.77" y1="656.24" x2="1743.18" y2="641.36"/>
  <polyline class="cls-2" points="1743.77 656.24 1928.24 650.27 1928.6 636.98 1934.3 636.98 1934.3 649.95 2118.24 642.81 2118.24 626.61 2124.66 626.61 2124.66 642.49 2317.68 634.55 2317.68 618.5 2323.74 618.5 2327.31 687.88 2561.33 679.12 2560.08 661.78 2568.64 662.75 2601.25 811.55"/>
  <polygon class="cls-2" points="1481.96 765.03 1482.24 721.75 1557.34 719.43 1557.34 763.51 1481.96 765.03"/>
  <line class="cls-2" x1="1488.9" y1="765.03" x2="1488.9" y2="749.15"/>
  <line class="cls-2" x1="1557.34" y1="748.01" x2="1488.9" y2="749.15"/>
  <line class="cls-2" x1="1562.86" y1="719.43" x2="1557.34" y2="719.43"/>
  <line class="cls-2" x1="1562.86" y1="736.34" x2="1562.86" y2="719.43"/>
  <line class="cls-2" x1="1736.64" y1="641.19" x2="1739.91" y2="730.51"/>
  <line class="cls-2" x1="1562.86" y1="736.34" x2="1739.91" y2="730.51"/>
  <line class="cls-2" x1="1780.84" y1="719.97" x2="1756.25" y2="720.46"/>
  <line class="cls-2" x1="1755.53" y1="681.07" x2="1756.25" y2="720.46"/>
  <line class="cls-2" x1="1929.85" y1="674.42" x2="1755.53" y2="681.07"/>
  <line class="cls-2" x1="1931.27" y1="702.14" x2="1929.85" y2="674.42"/>
  <line class="cls-2" x1="1777.1" y1="714.3" x2="1786.55" y2="690.96"/>
  <line class="cls-2" x1="1777.99" y1="720.21" x2="1777.1" y2="714.3"/>
  <line class="cls-2" x1="1794.74" y1="690.31" x2="1786.55" y2="690.96"/>
  <polyline class="cls-2" points="1794.74 690.31 1795.1 705.54 1869.07 702.63 1869.07 689.33 1875.84 689.25 1875.84 702.63 2041.06 698.25 2039.99 681.55 2047.84 681.55 2049.1 697.88 2294.51 689.82 2292.91 672.96 2302 672.96 2303.88 689.25 2327.48 687.87"/>
  <line class="cls-2" x1="1755.89" y1="693.87" x2="1785.77" y2="692.88"/>
  <line class="cls-2" x1="1794.82" y1="693.38" x2="1869.07" y2="690.63"/>
  <line class="cls-2" x1="1875.84" y1="689.98" x2="1930.56" y2="688.28"/>
  <line class="cls-2" x1="1755.57" y1="682.85" x2="1930.02" y2="677.75"/>
  <line class="cls-2" x1="1773.89" y1="682.31" x2="1774.07" y2="720.21"/>
  <line class="cls-2" x1="1794.74" y1="681.7" x2="1794.78" y2="692"/>
  <line class="cls-2" x1="1825.76" y1="680.8" x2="1826.65" y2="704.3"/>
  <line class="cls-2" x1="1860.15" y1="679.79" x2="1861.05" y2="702.94"/>
  <line class="cls-2" x1="1893.47" y1="678.81" x2="1894.38" y2="702.63"/>
  <line class="cls-2" x1="1809.88" y1="692.82" x2="1809.9" y2="704.96"/>
  <line class="cls-2" x1="1842.69" y1="691.61" x2="1842.69" y2="703.67"/>
  <line class="cls-2" x1="1911.66" y1="688.87" x2="1912" y2="701.67"/>
  <line class="cls-2" x1="1944.12" y1="700.82" x2="1943.39" y2="672.96"/>
  <line class="cls-2" x1="2121.45" y1="667.29" x2="1943.39" y2="672.96"/>
  <line class="cls-2" x1="2122.15" y1="695.48" x2="2121.45" y2="667.29"/>
  <line class="cls-2" x1="1943.36" y1="675.07" x2="2121.8" y2="670.13"/>
  <line class="cls-2" x1="1943.22" y1="686.25" x2="2039.46" y2="684.47"/>
  <line class="cls-2" x1="2048.91" y1="683.99" x2="2121.83" y2="682.53"/>
  <line class="cls-2" x1="1980.82" y1="674.03" x2="1980.28" y2="699.86"/>
  <line class="cls-2" x1="2015.93" y1="673.06" x2="2016.12" y2="698.91"/>
  <line class="cls-2" x1="2052.29" y1="672.96" x2="2053.35" y2="697.74"/>
  <line class="cls-2" x1="2085.61" y1="671.13" x2="2086.16" y2="695.27"/>
  <line class="cls-2" x1="1961.57" y1="685.91" x2="1961.59" y2="700.35"/>
  <line class="cls-2" x1="1997.4" y1="685.35" x2="1998.1" y2="699.39"/>
  <line class="cls-2" x1="2032.42" y1="684.6" x2="2032.42" y2="698.48"/>
  <line class="cls-2" x1="2135.17" y1="695.06" x2="2135.35" y2="666.16"/>
  <line class="cls-2" x1="2216.98" y1="663.08" x2="2135.35" y2="666.16"/>
  <line class="cls-2" x1="2217" y1="692.37" x2="2216.98" y2="663.08"/>
  <line class="cls-2" x1="2227.51" y1="692.02" x2="2226.3" y2="662.72"/>
  <line class="cls-2" x1="2319.44" y1="688.34" x2="2317.86" y2="659.19"/>
  <line class="cls-2" x1="2226.3" y1="662.72" x2="2317.86" y2="659.19"/>
  <line class="cls-2" x1="1574.45" y1="799.39" x2="1573.02" y2="759.2"/>
  <line class="cls-2" x1="1746.26" y1="753.68" x2="1573.02" y2="759.2"/>
  <line class="cls-2" x1="1747.69" y1="792.91" x2="1746.26" y2="753.68"/>
  <line class="cls-2" x1="1574.45" y1="799.39" x2="1747.69" y2="792.91"/>
  <line class="cls-2" x1="1573.73" y1="923.72" x2="1573.73" y2="868.12"/>
  <line class="cls-2" x1="1800.09" y1="863.74" x2="1573.73" y2="868.12"/>
  <line class="cls-2" x1="1804.01" y1="917.4" x2="1800.09" y2="863.74"/>
  <line class="cls-2" x1="1573.73" y1="923.72" x2="1804.01" y2="917.4"/>
  <line class="cls-2" x1="1573.73" y1="871.2" x2="1798.84" y2="866.34"/>
  <line class="cls-2" x1="1803.13" y1="917.42" x2="1798.84" y2="866.34"/>
  <line class="cls-2" x1="1573.73" y1="887.09" x2="1800.99" y2="881.41"/>
  <line class="cls-2" x1="1619.36" y1="870.22" x2="1619.9" y2="921.61"/>
  <line class="cls-2" x1="1662.85" y1="869.28" x2="1662.87" y2="921.27"/>
  <line class="cls-2" x1="1708.83" y1="868.28" x2="1709.81" y2="919.98"/>
  <line class="cls-2" x1="1753.57" y1="867.32" x2="1755.9" y2="918.72"/>
  <line class="cls-2" x1="1641.3" y1="885.4" x2="1642.01" y2="921.84"/>
  <line class="cls-2" x1="1686.91" y1="884.26" x2="1687.79" y2="920.59"/>
  <line class="cls-2" x1="1732.36" y1="883.13" x2="1733.08" y2="919.34"/>
  <path class="cls-2" d="M1825.94,915.61c0-.49-3.03-49.68-3.03-49.68l231.35-5.59,4.1,48.79-232.42,6.48Z"/>
  <line class="cls-2" x1="1825.94" y1="915.61" x2="1825.58" y2="869.58"/>
  <line class="cls-2" x1="2054.55" y1="863.91" x2="1825.58" y2="869.58"/>
  <line class="cls-2" x1="1867.27" y1="868.55" x2="1867.82" y2="915.61"/>
  <line class="cls-2" x1="1913.09" y1="867.41" x2="1914.33" y2="913.15"/>
  <line class="cls-2" x1="1959.97" y1="866.75" x2="1960.68" y2="912.05"/>
  <line class="cls-2" x1="2005.78" y1="865.12" x2="2007.01" y2="910.56"/>
  <line class="cls-2" x1="1825.65" y1="878.17" x2="2055.29" y2="872.64"/>
  <line class="cls-2" x1="1891.17" y1="876.59" x2="1891.35" y2="913.79"/>
  <line class="cls-2" x1="1936.97" y1="875.49" x2="1938.39" y2="912.48"/>
  <line class="cls-2" x1="1984.21" y1="874.35" x2="1984.73" y2="911.18"/>
  <polygon class="cls-2" points="2082.95 908.97 2076.89 859.69 2314.47 852.88 2319.46 902.16 2082.95 908.97"/>
  <line class="cls-2" x1="2076.89" y1="861.15" x2="2311.09" y2="856.94"/>
  <line class="cls-2" x1="2318.4" y1="902.19" x2="2311.09" y2="856.94"/>
  <line class="cls-2" x1="2078.46" y1="872.48" x2="2312.61" y2="866.35"/>
  <line class="cls-2" x1="2121.98" y1="860.34" x2="2129.29" y2="907.63"/>
  <line class="cls-2" x1="2164.04" y1="859.58" x2="2171.18" y2="906.43"/>
  <line class="cls-2" x1="2216.27" y1="858.64" x2="2222.15" y2="906.21"/>
  <line class="cls-2" x1="2260.82" y1="857.84" x2="2267.42" y2="903.66"/>
  <line class="cls-2" x1="2146.21" y1="870.71" x2="2151.93" y2="907.67"/>
  <line class="cls-2" x1="2190.95" y1="869.54" x2="2194.86" y2="905.75"/>
  <line class="cls-2" x1="2238.71" y1="868.29" x2="2243.71" y2="904.34"/>
  <line class="cls-2" x1="1573.52" y1="773.3" x2="1746.98" y2="768.27"/>
  <line class="cls-2" x1="1573.73" y1="762.28" x2="1743.77" y2="758.71"/>
  <line class="cls-2" x1="1747.69" y1="792.91" x2="1743.77" y2="758.71"/>
  <line class="cls-2" x1="1606.54" y1="761.59" x2="1607.07" y2="798.17"/>
  <line class="cls-2" x1="1641.45" y1="760.86" x2="1641.82" y2="796.87"/>
  <line class="cls-2" x1="1676.93" y1="760.11" x2="1677.84" y2="795.53"/>
  <line class="cls-2" x1="1710.79" y1="759.4" x2="1711.66" y2="794.26"/>
  <line class="cls-2" x1="1624.36" y1="771.83" x2="1623.98" y2="797.54"/>
  <line class="cls-2" x1="1658.04" y1="770.95" x2="1659.23" y2="795.99"/>
  <line class="cls-2" x1="1694.49" y1="770.54" x2="1695.11" y2="795.34"/>
  <polyline class="cls-2" points="1137.43 684.63 1313.77 679.23 1313.77 660.64 1320.18 660.64 1341.1 716.84 1342.77 746.75"/>
  <line class="cls-2" x1="1319.23" y1="730.67" x2="1320.18" y2="660.64"/>
  <line class="cls-2" x1="1189" y1="683.77" x2="1188.77" y2="590.95"/>
  <line class="cls-2" x1="1207.98" y1="640.11" x2="1188.77" y2="590.95"/>
  <line class="cls-2" x1="1337.06" y1="671.29" x2="1324.14" y2="671.29"/>
  <line class="cls-2" x1="1353.93" y1="651.61" x2="1337.06" y2="650.49"/>
  <line class="cls-2" x1="1337.06" y1="671.29" x2="1337.06" y2="650.49"/>
  <line class="cls-2" x1="1355.36" y1="746.75" x2="1352.65" y2="634.9"/>
  <line class="cls-2" x1="1480.34" y1="836.57" x2="1550.08" y2="835"/>
  <line class="cls-2" x1="1478.74" y1="786.86" x2="1557.34" y2="784.68"/>
  <line class="cls-2" x1="1479.51" y1="810.83" x2="1557.34" y2="809.12"/>
  <line class="cls-2" x1="1557.34" y1="784.68" x2="1557.34" y2="809.12"/>
  <line class="cls-2" x1="1562.86" y1="827.27" x2="1557.34" y2="835.92"/>
  <line class="cls-2" x1="1796.89" y1="828.56" x2="1786.55" y2="690.96"/>
  <line class="cls-2" x1="1557.34" y1="835.92" x2="1796.89" y2="828.56"/>
  <line class="cls-2" x1="1557.34" y1="809.12" x2="1557.34" y2="835.92"/>
  <polygon class="cls-2" points="1817.8 817.33 1814.71 742.12 2041.42 735.42 2049.26 809.77 1817.8 817.33"/>
  <line class="cls-2" x1="1815.89" y1="744.72" x2="2037.62" y2="740.18"/>
  <line class="cls-2" x1="2045.7" y1="809.88" x2="2037.62" y2="740.18"/>
  <line class="cls-2" x1="1815.69" y1="766.13" x2="2039.89" y2="759.76"/>
  <line class="cls-2" x1="1860.6" y1="764.85" x2="1862.7" y2="815.87"/>
  <line class="cls-2" x1="1904.99" y1="763.59" x2="1907.88" y2="814.39"/>
  <line class="cls-2" x1="1951.11" y1="763.51" x2="1954.2" y2="811.55"/>
  <line class="cls-2" x1="1995.77" y1="761.01" x2="2000.31" y2="811.55"/>
  <line class="cls-2" x1="1816.31" y1="781.23" x2="2041.82" y2="776.38"/>
  <line class="cls-2" x1="1882.44" y1="779.81" x2="1883.39" y2="815.19"/>
  <line class="cls-2" x1="1929.24" y1="778.8" x2="1930.56" y2="813.65"/>
  <line class="cls-2" x1="1975.11" y1="777.81" x2="1977.49" y2="811.55"/>
  <path class="cls-2" d="M2071.36,808.47c-.24-.65-9.03-74.13-9.03-74.13l233.84-6.92,11.17,75.86-235.98,5.19Z"/>
  <line class="cls-2" x1="2065.19" y1="758.12" x2="2294.53" y2="751.15"/>
  <line class="cls-2" x1="2109.38" y1="756.77" x2="2115.09" y2="807.51"/>
  <line class="cls-2" x1="2155.25" y1="755.38" x2="2160.72" y2="806.51"/>
  <line class="cls-2" x1="2203.26" y1="755.52" x2="2210.16" y2="805.42"/>
  <line class="cls-2" x1="2247.23" y1="752.59" x2="2256.48" y2="804.4"/>
  <line class="cls-2" x1="2066.93" y1="772.59" x2="2296.89" y2="766.11"/>
  <line class="cls-2" x1="2062.77" y1="738" x2="2291.66" y2="733.05"/>
  <line class="cls-2" x1="2302.82" y1="803.38" x2="2291.66" y2="733.05"/>
  <line class="cls-2" x1="2135.26" y1="770.66" x2="2137.9" y2="807.01"/>
  <line class="cls-2" x1="2180.68" y1="769.38" x2="2183.77" y2="806"/>
  <line class="cls-2" x1="2228.92" y1="768.21" x2="2234.63" y2="804.88"/>
  <line class="cls-2" x1="2335.86" y1="825.76" x2="2319.46" y2="721.16"/>
  <line class="cls-2" x1="2425.22" y1="718.09" x2="2319.46" y2="721.16"/>
  <line class="cls-2" x1="2444.23" y1="821.01" x2="2425.22" y2="718.09"/>
  <line class="cls-2" x1="2335.86" y1="825.76" x2="2444.23" y2="821.01"/>
  <line class="cls-2" x1="2323.7" y1="748.18" x2="2430.26" y2="745.39"/>
  <line class="cls-2" x1="2353.88" y1="824.97" x2="2338.24" y2="719.63"/>
  <line class="cls-2" x1="2424.27" y1="821.88" x2="2404.31" y2="718.7"/>
  <line class="cls-2" x1="2331.34" y1="796.89" x2="2439.26" y2="794.1"/>
  <line class="cls-2" x1="2735.63" y1="808.29" x2="2444.23" y2="821.01"/>
  <line class="cls-2" x1="2437.57" y1="715.03" x2="2559.25" y2="710.35"/>
  <line class="cls-2" x1="2572.56" y1="800.69" x2="2451.36" y2="805.01"/>
  <line class="cls-2" x1="2437.57" y1="715.03" x2="2451.36" y2="805.01"/>
  <line class="cls-2" x1="2559.25" y1="710.35" x2="2572.56" y2="800.69"/>
  <line class="cls-2" x1="2735.63" y1="788.16" x2="2596.81" y2="791.27"/>
  <line class="cls-2" x1="2522.65" y1="956.3" x2="2505.54" y2="858.61"/>
  <line class="cls-2" x1="2651.46" y1="852.88" x2="2505.54" y2="858.61"/>
  <line class="cls-2" x1="2672.37" y1="952.41" x2="2651.46" y2="852.88"/>
  <line class="cls-2" x1="2522.65" y1="956.3" x2="2672.37" y2="952.41"/>
  <line class="cls-2" x1="2735.63" y1="948.52" x2="2681.87" y2="948.09"/>
  <line class="cls-2" x1="2738.59" y1="849.97" x2="2661.91" y2="852.88"/>
  <line class="cls-2" x1="2681.87" y1="948.09" x2="2661.91" y2="852.88"/>
  <line class="cls-2" x1="2735.63" y1="1059.17" x2="2701.84" y2="1059.6"/>
  <line class="cls-2" x1="2737.64" y1="980.94" x2="2685.2" y2="980.07"/>
  <line class="cls-2" x1="2701.84" y1="1059.6" x2="2685.2" y2="980.07"/>
  <line class="cls-2" x1="2545.94" y1="1084.67" x2="2695.84" y2="1079.92"/>
  <line class="cls-2" x1="2685.68" y1="1031.51" x2="2695.84" y2="1079.92"/>
  <line class="cls-2" x1="2545.94" y1="1084.67" x2="2538.34" y2="1036.26"/>
  <line class="cls-2" x1="2685.68" y1="1031.51" x2="2538.34" y2="1036.26"/>
  <line class="cls-2" x1="1581.58" y1="1072.57" x2="1579.2" y2="1001.68"/>
  <line class="cls-2" x1="1860.57" y1="995.63" x2="1579.2" y2="1001.68"/>
  <line class="cls-2" x1="1865.8" y1="1065.22" x2="1581.58" y2="1072.57"/>
  <line class="cls-2" x1="1860.57" y1="995.63" x2="1865.8" y2="1065.22"/>
  <line class="cls-2" x1="1580.39" y1="1004.71" x2="1855.82" y2="999.09"/>
  <line class="cls-2" x1="1861.06" y1="1065.35" x2="1855.82" y2="999.09"/>
  <line class="cls-2" x1="1579.92" y1="1023.29" x2="1857.09" y2="1015.13"/>
  <line class="cls-2" x1="1633.39" y1="1003.63" x2="1636.26" y2="1071.16"/>
  <line class="cls-2" x1="1689.46" y1="1002.48" x2="1693.71" y2="1069.67"/>
  <line class="cls-2" x1="1747.44" y1="1001.3" x2="1751.26" y2="1068.9"/>
  <line class="cls-2" x1="1800.99" y1="1000.21" x2="1804.47" y2="1066.81"/>
  <line class="cls-2" x1="1662.86" y1="1020.85" x2="1665.7" y2="1070.4"/>
  <line class="cls-2" x1="1719.89" y1="1019.17" x2="1723.69" y2="1068.9"/>
  <line class="cls-2" x1="1775.02" y1="1017.54" x2="1778.35" y2="1067.48"/>
  <polygon class="cls-2" points="1888.61 1064.36 1882.91 995.2 2169.51 988.72 2177.59 1057.88 1888.61 1064.36"/>
  <line class="cls-2" x1="1884.62" y1="1015.93" x2="2168.86" y2="1009.97"/>
  <line class="cls-2" x1="1882.91" y1="998.66" x2="2167.61" y2="993.47"/>
  <line class="cls-2" x1="2172.51" y1="1057.99" x2="2167.61" y2="993.47"/>
  <line class="cls-2" x1="1940.07" y1="997.62" x2="1945.2" y2="1063.09"/>
  <line class="cls-2" x1="1998.04" y1="996.56" x2="2003.65" y2="1061.78"/>
  <line class="cls-2" x1="2054.47" y1="995.53" x2="2062.33" y2="1062.2"/>
  <line class="cls-2" x1="2112.24" y1="994.48" x2="2118.66" y2="1059.2"/>
  <line class="cls-2" x1="1969.4" y1="1014.15" x2="1976.3" y2="1064.36"/>
  <line class="cls-2" x1="2026.42" y1="1012.96" x2="2030.25" y2="1061.18"/>
  <line class="cls-2" x1="2084.41" y1="1011.74" x2="2090.14" y2="1059.84"/>
  <line class="cls-2" x1="1583.48" y1="1129.2" x2="1867.7" y2="1123.58"/>
  <polyline class="cls-2" points="1743.36 1195.64 1800.08 1195.12 1835.74 1174.15 1870.03 1173.22 1867.7 1123.58"/>
  <line class="cls-2" x1="1606.96" y1="1151.52" x2="1868.75" y2="1146.01"/>
  <line class="cls-2" x1="1640.55" y1="1162.39" x2="1640.06" y2="1128.08"/>
  <line class="cls-2" x1="1695.04" y1="1180.01" x2="1694.71" y2="1127"/>
  <line class="cls-2" x1="1756.5" y1="1195.52" x2="1754.12" y2="1125.82"/>
  <line class="cls-2" x1="1810.56" y1="1186.8" x2="1809.72" y2="1124.72"/>
  <line class="cls-2" x1="1666.19" y1="1150.28" x2="1666.03" y2="1170.63"/>
  <line class="cls-2" x1="1725.61" y1="1149.03" x2="1727.54" y2="1190.53"/>
  <line class="cls-2" x1="1783.55" y1="1147.81" x2="1785.94" y2="1195.25"/>
  <line class="cls-2" x1="1894.79" y1="1122.71" x2="2188.05" y2="1117.09"/>
  <line class="cls-2" x1="1899.58" y1="1175.52" x2="2192.58" y2="1165.95"/>
  <line class="cls-2" x1="1894.79" y1="1122.71" x2="1899.58" y2="1175.52"/>
  <line class="cls-2" x1="2188.05" y1="1117.09" x2="2192.58" y2="1165.95"/>
  <line class="cls-2" x1="1896.29" y1="1145.17" x2="2189.48" y2="1138.5"/>
  <line class="cls-2" x1="1958.93" y1="1121.48" x2="1963.47" y2="1173.44"/>
  <line class="cls-2" x1="2022.17" y1="1120.34" x2="2028.11" y2="1172.22"/>
  <line class="cls-2" x1="2081.35" y1="1119.14" x2="2089.9" y2="1169.31"/>
  <line class="cls-2" x1="2132.43" y1="1118.16" x2="2140.16" y2="1167.02"/>
  <line class="cls-2" x1="1991.03" y1="1124.23" x2="1995.76" y2="1172.38"/>
  <line class="cls-2" x1="2054.73" y1="1141.57" x2="2059.72" y2="1170.74"/>
  <line class="cls-2" x1="2109.62" y1="1140.32" x2="2115.33" y2="1168.48"/>
  <polyline class="cls-2" points="2390.05 1163.78 2222.15 1165.72 2216.09 1116.12 2520.87 1110.29 2521.12 1120.02"/>
  <line class="cls-2" x1="2218.14" y1="1132.91" x2="2479.4" y2="1132.22"/>
  <line class="cls-2" x1="2275.27" y1="1114.99" x2="2281.68" y2="1165.72"/>
  <line class="cls-2" x1="2331.23" y1="1113.92" x2="2336.9" y2="1161.41"/>
  <line class="cls-2" x1="2397.88" y1="1112.64" x2="2403.81" y2="1150.94"/>
  <line class="cls-2" x1="2458.48" y1="1111.48" x2="2461.43" y2="1150.24"/>
  <line class="cls-2" x1="2307.33" y1="1131.42" x2="2310.22" y2="1164.7"/>
  <line class="cls-2" x1="2366.28" y1="1130.43" x2="2373.41" y2="1163.96"/>
  <line class="cls-2" x1="2431.86" y1="1129.32" x2="2433.77" y2="1148.65"/>
  <line class="cls-2" x1="2062.33" y1="1298.82" x2="2219.21" y2="1217.91"/>
  <line class="cls-2" x1="2319.46" y1="1215" x2="2219.21" y2="1217.91"/>
  <line class="cls-2" x1="2407.63" y1="1148.79" x2="2319.46" y2="1215"/>
  <line class="cls-2" x1="2466.57" y1="1150.38" x2="2407.63" y2="1148.79"/>
  <line class="cls-2" x1="2479.4" y1="1132.22" x2="2466.57" y2="1150.38"/>
  <line class="cls-2" x1="2737.16" y1="1064.36" x2="2479.4" y2="1132.22"/>
  <line class="cls-2" x1="2164.6" y1="1331.89" x2="2250.79" y2="1292.15"/>
  <line class="cls-2" x1="2413.81" y1="1252.82" x2="2337.29" y2="1291.29"/>
  <line class="cls-2" x1="2250.79" y1="1292.15" x2="2337.29" y2="1291.29"/>
  <line class="cls-2" x1="2433.77" y1="1443.87" x2="2413.81" y2="1252.82"/>
  <line class="cls-2" x1="2466.57" y1="1443" x2="2440.43" y2="1232.89"/>
  <line class="cls-2" x1="2523.81" y1="1443.44" x2="2490.33" y2="1232.89"/>
  <line class="cls-2" x1="2440.43" y1="1232.89" x2="2492.71" y2="1232.89"/>
  <line class="cls-2" x1="2423.79" y1="1443.87" x2="2402.78" y2="1258.36"/>
  <line class="cls-2" x1="2562.1" y1="1445.6" x2="2537.39" y2="1287.83"/>
  <line class="cls-2" x1="2550.38" y1="1446.44" x2="2526.93" y2="1288.26"/>
  <line class="cls-2" x1="2735.63" y1="1262.76" x2="2526.93" y2="1288.26"/>
  <line class="cls-2" x1="2269.63" y1="1438.27" x2="2735.63" y2="1449.06"/>
  <polyline class="cls-2" points="2210.39 1070.41 2196.13 963.65 2190.31 961.92 2188.52 915.61 2177.59 915.61 2177.59 943.76 1870.03 955 1870.03 924.75 1861.65 925.18 1861.65 953.27 1560.1 961.49 1560.1 931.23 1550.08 931.23 1557.34 1133.09"/>
  <line class="cls-2" x1="2318.06" y1="888.25" x2="2477.91" y2="819.89"/>
  <line class="cls-2" x1="2517.3" y1="1085.32" x2="2477.91" y2="819.89"/>
  <line class="cls-2" x1="2210.39" y1="1070.41" x2="2213.24" y2="1090.83"/>
  <line class="cls-2" x1="2517.3" y1="1085.32" x2="2213.24" y2="1090.83"/>
  <line class="cls-2" x1="2514.1" y1="1064.36" x2="2210.39" y2="1070.41"/>
  <line class="cls-2" x1="490.21" y1="634.69" x2="490.21" y2="621.15"/>
  <g class="cls-8">
    <g class="cls-5">
      <g>
        <g>
          <g>
            <polygon class="cls-2" points="2166.44 1167.72 704.58 1254.62 704.95 1259.83 2166.81 1172.92 2166.44 1167.72"/>
            <polygon class="cls-11" points="2205.35 1171.06 687.38 1261.24 687.65 1265 2205.62 1174.82 2205.35 1171.06"/>
          </g>
          <g>
            <polygon class="cls-2" points="2181.13 1156.93 719.27 1243.83 719.64 1249.04 2181.5 1162.13 2181.13 1156.93"/>
            <polygon class="cls-11" points="2220.04 1160.27 702.07 1250.45 702.33 1254.21 2220.3 1164.03 2220.04 1160.27"/>
          </g>
          <g>
            <polygon class="cls-2" points="2195.82 1146.14 733.95 1233.04 734.32 1238.25 2196.18 1151.34 2195.82 1146.14"/>
            <polygon class="cls-11" points="2234.72 1149.48 716.75 1239.66 717.02 1243.42 2234.99 1153.24 2234.72 1149.48"/>
          </g>
          <g>
            <polygon class="cls-2" points="2210.5 1135.35 748.64 1222.25 749.01 1227.46 2210.87 1140.55 2210.5 1135.35"/>
            <polygon class="cls-11" points="2249.41 1138.69 731.44 1228.87 731.7 1232.63 2249.68 1142.45 2249.41 1138.69"/>
          </g>
          <g>
            <polygon class="cls-2" points="2225.19 1124.56 763.33 1211.46 763.69 1216.66 2225.56 1129.76 2225.19 1124.56"/>
            <polygon class="cls-11" points="2264.1 1127.9 746.12 1218.08 746.39 1221.84 2264.36 1131.66 2264.1 1127.9"/>
          </g>
          <g>
            <polygon class="cls-2" points="2239.87 1113.77 778.01 1200.67 778.38 1205.87 2240.24 1118.97 2239.87 1113.77"/>
            <polygon class="cls-11" points="2278.78 1117.11 760.81 1207.29 761.08 1211.05 2279.05 1120.87 2278.78 1117.11"/>
          </g>
          <g>
            <polygon class="cls-2" points="2254.56 1102.98 792.7 1189.88 793.07 1195.08 2254.93 1108.18 2254.56 1102.98"/>
            <polygon class="cls-11" points="2293.47 1106.31 775.5 1196.5 775.76 1200.26 2293.74 1110.08 2293.47 1106.31"/>
          </g>
          <g>
            <polygon class="cls-2" points="2269.25 1092.19 807.39 1179.09 807.75 1184.29 2269.61 1097.39 2269.25 1092.19"/>
            <polygon class="cls-11" points="2308.16 1095.52 790.18 1185.71 790.45 1189.47 2308.42 1099.29 2308.16 1095.52"/>
          </g>
        </g>
        <g>
          <g>
            <polygon class="cls-2" points="2164.39 1250.05 702.53 1336.95 702.9 1342.16 2164.76 1255.25 2164.39 1250.05"/>
            <polygon class="cls-11" points="2203.3 1253.39 685.33 1343.57 685.59 1347.33 2203.57 1257.15 2203.3 1253.39"/>
          </g>
          <g>
            <polygon class="cls-2" points="2179.08 1239.26 717.22 1326.16 717.59 1331.37 2179.45 1244.46 2179.08 1239.26"/>
            <polygon class="cls-11" points="2217.99 1242.6 700.02 1332.78 700.28 1336.54 2218.25 1246.36 2217.99 1242.6"/>
          </g>
          <g>
            <polygon class="cls-2" points="2193.77 1228.47 731.9 1315.37 732.27 1320.57 2194.13 1233.67 2193.77 1228.47"/>
            <polygon class="cls-11" points="2232.67 1231.81 714.7 1321.99 714.97 1325.75 2232.94 1235.57 2232.67 1231.81"/>
          </g>
          <g>
            <polygon class="cls-2" points="2208.45 1217.68 746.59 1304.58 746.96 1309.78 2208.82 1222.88 2208.45 1217.68"/>
            <polygon class="cls-11" points="2247.36 1221.02 729.39 1311.2 729.65 1314.96 2247.63 1224.78 2247.36 1221.02"/>
          </g>
          <g>
            <polygon class="cls-2" points="2223.14 1206.89 761.28 1293.79 761.64 1298.99 2223.5 1212.09 2223.14 1206.89"/>
            <polygon class="cls-11" points="2262.05 1210.23 744.07 1300.41 744.34 1304.17 2262.31 1213.99 2262.05 1210.23"/>
          </g>
          <g>
            <polygon class="cls-2" points="2237.82 1196.1 775.96 1283 776.33 1288.2 2238.19 1201.3 2237.82 1196.1"/>
            <polygon class="cls-11" points="2276.73 1199.43 758.76 1289.62 759.03 1293.38 2277 1203.2 2276.73 1199.43"/>
          </g>
          <g>
            <polygon class="cls-2" points="2252.51 1185.3 790.65 1272.21 791.02 1277.41 2252.88 1190.51 2252.51 1185.3"/>
            <polygon class="cls-11" points="2291.42 1188.64 773.45 1278.83 773.71 1282.59 2291.68 1192.41 2291.42 1188.64"/>
          </g>
          <g>
            <polygon class="cls-2" points="2267.2 1174.51 805.34 1261.42 805.7 1266.62 2267.56 1179.72 2267.2 1174.51"/>
            <polygon class="cls-11" points="2306.11 1177.85 788.13 1268.04 788.4 1271.8 2306.37 1181.61 2306.11 1177.85"/>
          </g>
        </g>
        <g>
          <g>
            <polygon class="cls-2" points="2053.51 1023.41 591.65 1110.31 591.96 1114.71 2053.82 1027.8 2053.51 1023.41"/>
            <polygon class="cls-11" points="2092.36 1025.88 574.39 1116.06 574.61 1119.24 2092.58 1029.05 2092.36 1025.88"/>
          </g>
          <g>
            <polygon class="cls-2" points="2068.31 1014.15 606.44 1101.05 606.76 1105.45 2068.62 1018.55 2068.31 1014.15"/>
            <polygon class="cls-11" points="2107.15 1016.62 589.18 1106.8 589.4 1109.98 2107.38 1019.8 2107.15 1016.62"/>
          </g>
          <g>
            <polygon class="cls-2" points="2083.1 1004.9 621.24 1091.8 621.55 1096.2 2083.41 1009.29 2083.1 1004.9"/>
            <polygon class="cls-11" points="2121.95 1007.37 603.98 1097.55 604.2 1100.73 2122.17 1010.54 2121.95 1007.37"/>
          </g>
          <g>
            <polygon class="cls-2" points="2097.89 995.64 636.03 1082.55 636.34 1086.94 2098.21 1000.04 2097.89 995.64"/>
            <polygon class="cls-11" points="2136.74 998.11 618.77 1088.29 618.99 1091.47 2136.97 1001.29 2136.74 998.11"/>
          </g>
          <g>
            <polygon class="cls-2" points="2112.69 986.39 650.83 1073.29 651.14 1077.69 2113 990.78 2112.69 986.39"/>
            <polygon class="cls-11" points="2151.54 988.86 633.56 1079.04 633.79 1082.22 2151.76 992.04 2151.54 988.86"/>
          </g>
          <g>
            <polygon class="cls-2" points="2127.48 977.13 665.62 1064.04 665.93 1068.43 2127.79 981.53 2127.48 977.13"/>
            <polygon class="cls-11" points="2166.33 979.6 648.36 1069.79 648.58 1072.96 2166.56 982.78 2166.33 979.6"/>
          </g>
          <g>
            <polygon class="cls-2" points="2142.28 967.88 680.42 1054.78 680.73 1059.18 2142.59 972.27 2142.28 967.88"/>
            <polygon class="cls-11" points="2181.13 970.35 663.15 1060.53 663.38 1063.71 2181.35 973.53 2181.13 970.35"/>
          </g>
          <g>
            <polygon class="cls-2" points="2157.07 958.62 695.21 1045.53 695.52 1049.92 2157.38 963.02 2157.07 958.62"/>
            <polygon class="cls-11" points="2195.92 961.09 677.95 1051.28 678.17 1054.45 2196.15 964.27 2195.92 961.09"/>
          </g>
        </g>
        <g>
          <g>
            <polygon class="cls-2" points="2050.56 1093.02 588.7 1179.93 589.01 1184.32 2050.87 1097.42 2050.56 1093.02"/>
            <polygon class="cls-11" points="2089.41 1095.49 571.44 1185.68 571.66 1188.85 2089.64 1098.67 2089.41 1095.49"/>
          </g>
          <g>
            <polygon class="cls-2" points="2065.36 1083.77 603.5 1170.67 603.81 1175.07 2065.67 1088.16 2065.36 1083.77"/>
            <polygon class="cls-11" points="2104.21 1086.24 586.23 1176.42 586.46 1179.6 2104.43 1089.42 2104.21 1086.24"/>
          </g>
          <g>
            <polygon class="cls-2" points="2080.15 1074.51 618.29 1161.42 618.6 1165.81 2080.46 1078.91 2080.15 1074.51"/>
            <polygon class="cls-11" points="2119 1076.99 601.03 1167.17 601.25 1170.34 2119.22 1080.16 2119 1076.99"/>
          </g>
          <g>
            <polygon class="cls-2" points="2094.95 1065.26 633.09 1152.16 633.4 1156.56 2095.26 1069.66 2094.95 1065.26"/>
            <polygon class="cls-11" points="2133.79 1067.73 615.82 1157.91 616.05 1161.09 2134.02 1070.91 2133.79 1067.73"/>
          </g>
          <g>
            <polygon class="cls-2" points="2109.74 1056 647.88 1142.91 648.19 1147.3 2110.05 1060.4 2109.74 1056"/>
            <polygon class="cls-11" points="2148.59 1058.48 630.62 1148.66 630.84 1151.83 2148.81 1061.65 2148.59 1058.48"/>
          </g>
          <g>
            <polygon class="cls-2" points="2124.54 1046.75 662.67 1133.65 662.99 1138.05 2124.85 1051.15 2124.54 1046.75"/>
            <polygon class="cls-11" points="2163.38 1049.22 645.41 1139.4 645.64 1142.58 2163.61 1052.4 2163.38 1049.22"/>
          </g>
          <g>
            <polygon class="cls-2" points="2139.33 1037.5 677.47 1124.4 677.78 1128.79 2139.64 1041.89 2139.33 1037.5"/>
            <polygon class="cls-11" points="2178.18 1039.97 660.21 1130.15 660.43 1133.33 2178.4 1043.14 2178.18 1039.97"/>
          </g>
          <g>
            <polygon class="cls-2" points="2154.12 1028.24 692.26 1115.14 692.57 1119.54 2154.44 1032.64 2154.12 1028.24"/>
            <polygon class="cls-11" points="2192.97 1030.71 675 1120.89 675.22 1124.07 2193.2 1033.89 2192.97 1030.71"/>
          </g>
        </g>
        <g>
          <g>
            <polygon class="cls-2" points="2150.57 1358.35 688.71 1445.26 689.21 1452.39 2151.07 1365.48 2150.57 1358.35"/>
            <polygon class="cls-11" points="2189.62 1363.76 671.65 1453.94 672.02 1459.1 2189.99 1368.91 2189.62 1363.76"/>
          </g>
          <g>
            <polygon class="cls-2" points="2165 1343.9 703.14 1430.81 703.64 1437.94 2165.5 1351.03 2165 1343.9"/>
            <polygon class="cls-11" points="2204.05 1349.31 686.08 1439.49 686.44 1444.64 2204.42 1354.46 2204.05 1349.31"/>
          </g>
          <g>
            <polygon class="cls-2" points="2179.42 1329.45 717.56 1416.36 718.07 1423.49 2179.93 1336.58 2179.42 1329.45"/>
            <polygon class="cls-11" points="2218.48 1334.86 700.51 1425.04 700.87 1430.19 2218.84 1340.01 2218.48 1334.86"/>
          </g>
          <g>
            <polygon class="cls-2" points="2193.85 1315 731.99 1401.9 732.49 1409.03 2194.36 1322.13 2193.85 1315"/>
            <polygon class="cls-11" points="2232.91 1320.41 714.93 1410.59 715.3 1415.74 2233.27 1325.56 2232.91 1320.41"/>
          </g>
          <g>
            <polygon class="cls-2" points="2208.28 1300.55 746.42 1387.45 746.92 1394.58 2208.78 1307.68 2208.28 1300.55"/>
            <polygon class="cls-11" points="2247.34 1305.96 729.36 1396.14 729.73 1401.29 2247.7 1311.11 2247.34 1305.96"/>
          </g>
          <g>
            <polygon class="cls-2" points="2222.71 1286.1 760.85 1373 761.35 1380.13 2223.21 1293.23 2222.71 1286.1"/>
            <polygon class="cls-11" points="2261.76 1291.51 743.79 1381.69 744.15 1386.84 2262.13 1296.66 2261.76 1291.51"/>
          </g>
          <g>
            <polygon class="cls-2" points="2237.13 1271.65 775.27 1358.55 775.78 1365.68 2237.64 1278.78 2237.13 1271.65"/>
            <polygon class="cls-11" points="2276.19 1277.05 758.22 1367.24 758.58 1372.39 2276.55 1282.21 2276.19 1277.05"/>
          </g>
          <g>
            <polygon class="cls-2" points="2251.56 1257.2 789.7 1344.1 790.2 1351.23 2252.07 1264.33 2251.56 1257.2"/>
            <polygon class="cls-11" points="2290.62 1262.6 772.64 1352.79 773.01 1357.94 2290.98 1267.76 2290.62 1262.6"/>
          </g>
        </g>
        <g>
          <g>
            <polygon class="cls-2" points="2200.43 1486.33 738.57 1573.24 739.17 1581.67 2201.03 1494.77 2200.43 1486.33"/>
            <polygon class="cls-11" points="2239.59 1493.14 721.61 1583.32 722.05 1589.42 2240.02 1499.24 2239.59 1493.14"/>
          </g>
          <g>
            <polygon class="cls-2" points="2214.69 1469.41 752.83 1556.31 753.42 1564.74 2215.28 1477.84 2214.69 1469.41"/>
            <polygon class="cls-11" points="2253.84 1476.21 735.87 1566.39 736.3 1572.49 2254.27 1482.31 2253.84 1476.21"/>
          </g>
          <g>
            <polygon class="cls-2" points="2228.94 1452.48 767.08 1539.38 767.67 1547.81 2229.53 1460.91 2228.94 1452.48"/>
            <polygon class="cls-11" points="2268.09 1459.28 750.12 1549.47 750.55 1555.56 2268.52 1465.38 2268.09 1459.28"/>
          </g>
          <g>
            <polygon class="cls-2" points="2243.19 1435.55 781.33 1522.45 781.93 1530.89 2243.79 1443.98 2243.19 1435.55"/>
            <polygon class="cls-11" points="2282.35 1442.36 764.37 1532.54 764.8 1538.63 2282.78 1448.45 2282.35 1442.36"/>
          </g>
          <g>
            <polygon class="cls-2" points="2257.44 1418.62 795.58 1505.52 796.18 1513.96 2258.04 1427.05 2257.44 1418.62"/>
            <polygon class="cls-11" points="2296.6 1425.43 778.63 1515.61 779.06 1521.7 2297.03 1431.52 2296.6 1425.43"/>
          </g>
          <g>
            <polygon class="cls-2" points="2271.7 1401.69 809.84 1488.59 810.43 1497.03 2272.29 1410.12 2271.7 1401.69"/>
            <polygon class="cls-11" points="2310.85 1408.5 792.88 1498.68 793.31 1504.77 2311.28 1414.59 2310.85 1408.5"/>
          </g>
          <g>
            <polygon class="cls-2" points="2285.95 1384.76 824.09 1471.67 824.68 1480.1 2286.54 1393.2 2285.95 1384.76"/>
            <polygon class="cls-11" points="2325.1 1391.57 807.13 1481.75 807.56 1487.85 2325.53 1397.66 2325.1 1391.57"/>
          </g>
          <g>
            <polygon class="cls-2" points="2300.2 1367.83 838.34 1454.74 838.94 1463.17 2300.8 1376.27 2300.2 1367.83"/>
            <polygon class="cls-11" points="2339.36 1374.64 821.38 1464.82 821.81 1470.92 2339.79 1380.74 2339.36 1374.64"/>
          </g>
        </g>
        <g>
          <polygon class="cls-2" points="2299.05 1540.07 837.19 1626.97 837.89 1637 2299.75 1550.09 2299.05 1540.07"/>
          <g>
            <polygon class="cls-2" points="2313.09 1520.11 851.22 1607.01 851.93 1617.04 2313.79 1530.13 2313.09 1520.11"/>
            <polygon class="cls-11" points="2352.36 1528.63 834.39 1618.81 834.9 1626.06 2352.87 1535.87 2352.36 1528.63"/>
          </g>
          <g>
            <polygon class="cls-2" points="2327.12 1500.15 865.26 1587.05 865.97 1597.08 2327.83 1510.17 2327.12 1500.15"/>
            <polygon class="cls-11" points="2366.4 1508.67 848.43 1598.85 848.94 1606.1 2366.91 1515.91 2366.4 1508.67"/>
          </g>
        </g>
      </g>
    </g>
    <polygon class="cls-2" points="708.54 1089.53 1387.61 1171.49 1717.03 1275.29 1819.7 1277.89 2261.98 1458.57 1138.5 1511.19 1138.5 1344.93 708.54 1089.53"/>
  </g>
  <text class="cls-7" transform="translate(1409.96 456.8) rotate(-1.16) scale(1 .69) skewX(.17)"><tspan x="0" y="0">海东育英实验学校</tspan></text>
  <g class="cls-9">
    <path class="cls-10" d="M1429.71,406.08l-40.94.83s-2.04,31.59,21.19,43.84c23.64-12.84,19.75-44.67,19.75-44.67ZM1409.94,448.21c-19.79-12.15-18.77-38.82-18.77-38.82l36.25-.73s2.18,27.31-17.49,39.55Z"/>
    <g>
      <path class="cls-10" d="M1416.74,409.51l-24.57.5s-.42,11.05,4.63,21.92l19.93-22.42Z"/>
      <path class="cls-10" d="M1405.02,443.4c1.46,1.35,3.09,2.61,4.9,3.73,10.86-6.84,14.67-18.6,15.96-27.2l-20.86,23.46Z"/>
    </g>
    <path class="cls-12" d="M1415.37,436.64c-.18.12-.35.27-.6.23-.14,0-.28-.02-.42-.03-.05,0-.1,0-.15,0-.09.01-.17.03-.26.04-.66.01-1.32.03-1.98.04-.06,0-.12,0-.17,0-.05,0-.09,0-.14,0,0,0-.01,0-.02,0-.21-.03-.41-.05-.62-.08-.02-.02-.05-.06-.07-.06-.22,0-.44,0-.66.01-.03,0-.06.05-.08.08-.01,0-.03,0-.04.01-.06.01-.12.03-.17.04-.14.02-.29.04-.43.05-.16-.04-.33-.1-.47.05-.07.04-.17.06-.21.12-.12.2-.23.41-.33.61-.19.38-.03,1.07.32,1.34.03.04.05.1.09.13.1.06.21.11.32.17.08.14.19.11.3.04.17.04.24-.1.34-.2.04-.01.08-.03.12-.04.13-.08.26-.16.39-.23.06,0,.11-.02.17-.03.26-.13.52-.27.78-.4.07-.03.15-.03.23-.05.21-.05.41-.11.62-.15.27-.05.55-.09.82-.14.14,0,.29,0,.43,0,.26.05.51.1.77.14.08.01.15.04.23.05.21.02.42.02.57.19.03.04.11.03.16.05.06.01.12,0,.17.03.29.16.58.31.86.49.11.07.19.21.26.33.03.04.03.15,0,.18-.16.13-.28.34-.54.3-.04,0-.09,0-.13-.01-.26-.12-.52-.24-.77-.37-.04-.02-.09-.04-.13-.06-.09,0-.17,0-.26-.01-.03,0-.06-.02-.09-.03-.22-.2-.5-.2-.77-.2-.58.01-1.16.03-1.74.05-.11,0-.22.06-.33.09-.15.05-.29.1-.44.14-.03,0-.06,0-.08.01-.23.12-.48.23-.7.37-.43.29-.89.42-1.4.33-.15-.03-.28-.16-.4-.26-.12-.09-.21-.21-.32-.31,0-.01-.02-.03-.03-.04-.27-.32-.4-.71-.54-1.1.07-.08.1-.16-.03-.22,0-.14,0-.29,0-.43.12-.05.1-.11.02-.18.15-.33.21-.71.48-.98.11-.11.22-.21.33-.32.04-.01.09-.03.13-.04.24-.19.51-.27.81-.25.17-.02.34-.03.51-.05.16,0,.32,0,.48,0,.33,0,.66,0,.99-.01,0,0,.02,0,.02,0h.02c1.08-.02,2.16-.05,3.24-.05.3,0,.48-.13.61-.38.06-.11.14-.22.16-.34.03-.16.05-.33,0-.48-.01-.05-.23-.06-.35-.06-.51,0-1.02.03-1.52.05-.1,0-.2.01-.3.02-.17.02-.34.03-.52.05-.09-.01-.17-.02-.26-.04-.06.02-.11.05-.17.07-.06,0-.12.02-.18.03-.46.03-.91.05-1.37.08-.14-.08-.27-.12-.39.03-.45.01-.89.03-1.34.04-.19,0-.37,0-.56.01-.03,0-.06,0-.09,0-.06,0-.12,0-.17,0-1.12.02-2.24.04-3.36.06-.2,0-.21.15-.21.31.01.59.03,1.18.04,1.77.02.92.03,1.84.04,2.76,0,.03-.01.06-.02.09-.04.07-.07.18-.14.21-.1.05-.22.09-.33.08-.05,0-.12-.11-.14-.18-.04-.15-.05-.31-.06-.47-.04-1.84-.07-3.67-.12-5.51,0-.25-.09-.5-.14-.76.02-.33.05-.66.07-.99,0-.03-.01-.06-.02-.09.03-.09.06-.18.08-.28.01,0,.02,0,.03,0-.01,0-.02,0-.03,0,0-.05,0-.1,0-.14l.25-.44s0-.03,0-.04l.02-.17c.19-.27.41-.49.75-.55.06-.02.11-.05.17-.07.03-.02.06-.03.09-.05.17-.02.34-.03.52-.05,1.61-.05,3.22-.1,4.83-.13,1.51-.04,3.01-.06,4.52-.09.08.05.16.1.24.15.13.14.26.27.39.41.05.06.1.12.15.18,0,.02.02.04.03.07.08.28.2.54.2.84,0,.26.07.52.08.78.01.28.01.56-.03.84-.07.46,0,.92.01,1.38,0,.35-.04.68-.2.97-.13.24-.36.43-.55.64-.05.01-.1.03-.15.04ZM1405.1,431.63s-.05.09-.07.14c0,0,0,0,0,0-.04.08-.07.17-.11.25-.04.12-.09.23-.13.35.03.02.05.04.08.06.07,0,.14.02.21.02,2.48-.05,4.97-.1,7.45-.16.79-.02,1.58-.05,2.37-.07l.11.02c.49,0,.56-.13.4-.47-.03-.26-.27-.34-.43-.48,0-.01-.02-.02-.03-.02-.1-.01-.2-.03-.3-.03-.53,0-1.06.01-1.59.03-1.66.05-3.32.1-4.98.15-.06.01-.12.02-.18.03l-.25.02c-.11.01-.23.03-.34.04-.03,0-.06,0-.08,0-.09-.07-.16-.09-.22.04-.13,0-.26,0-.39.01-.04,0-.09,0-.13.01-.43.02-.86.04-1.29.07h-.09ZM1414.06,433.07c-.16.01-.33.02-.49.04-.38.02-.77.04-1.15.06-.06,0-.12,0-.17,0-.13,0-.26,0-.39,0-.04,0-.09,0-.13,0-.54,0-1.09,0-1.63.02-1.17.03-2.35.08-3.52.12-.11,0-.22,0-.34,0-.01,0-.02.01-.03.03h-.22c-.1.02-.2.04-.3.05-.06,0-.11.02-.17.03-.17-.01-.35-.03-.52-.03-.04,0-.08.05-.13.08-.03.03-.07.06-.1.09-.02.05-.05.09-.07.14-.15.2-.07.38.06.55.01.01.03.03.04.04.09.01.18.04.27.03,1.03-.03,2.06-.07,3.09-.1l.13.04c.21-.02.43-.03.64-.05.28-.02.57-.04.85-.06.04,0,.07-.05.11-.08.6-.03,1.21-.06,1.81-.08.13,0,.27-.02.4-.02.09,0,.17-.02.26-.02.36-.02.71-.03,1.07-.04,0,0,.02,0,.03,0,.64,0,1.27,0,1.91-.01.04,0,.08-.04.12-.07.18-.15.07-.35.09-.53.02-.17-.06-.22-.23-.22-.37,0-.74,0-1.12-.01-.06,0-.11,0-.17,0Z"/>
    <path class="cls-12" d="M1420.27,426.77c-.24.1-.47.19-.71.29-.08-.02-.16-.03-.24-.05-.03,0-.06-.02-.09-.03-.01,0-.03,0-.04.01-.01,0-.03-.01-.04-.02-.03,0-.06-.02-.09-.03-.38-.08-.77-.16-1.15-.25-.43-.1-.85-.21-1.27-.32-.12-.04-.23-.08-.35-.11l-.82-.07s-.03-.02-.05-.03l-1.07-.08s-.09-.02-.13-.02c-.06,0-.11-.02-.17-.03-.03,0-.06-.01-.09-.02-.03,0-.06-.02-.09-.02-.03,0-.06,0-.09-.01-.53-.01-1.06-.03-1.6-.04-.04,0-.09,0-.13-.01-.12,0-.23,0-.35,0-.02-.01-.03-.02-.05-.03-.31-.07-.62-.07-.92.07-.22.06-.26.13-.19.34-.02.2-.03.4-.05.61,0,.04.01.09.02.13.06.03.12.05.18.08.16,0,.32,0,.47,0,.33-.04.66-.07.99-.11.03.01.06.02.09.03.13.01.26.03.39.04.14,0,.29.02.43.02.17.02.34.04.51.05.03,0,.06.02.09.02.24.03.48.06.72.08.1.14.24.17.4.14.18.07.37.15.55.22.02,0,.04.02.05.03.07.09.14.18.22.27.02.01.03.02.05.04.06.04.11.09.17.13.02.24.04.49.06.73-.13.1-.25.21-.38.31-.03.04-.06.09-.09.13-.21.09-.43.18-.64.27-.03,0-.06.02-.09.02-.13.03-.26.06-.38.09-.03.01-.05.03-.08.04-.23.03-.46.07-.69.09-.32.03-.63.05-.95.07-.11-.06-.22-.1-.3.04-.07,0-.14,0-.21.01-.15-.05-.3-.11-.43.04-1.13.01-2.27.03-3.4.04-.05,0-.09,0-.14,0-.27,0-.54.01-.82.02l-.39-.04c-.37.01-.75.03-1.12.03-.08,0-.17-.06-.25-.08-.1-.03-.21-.05-.31-.08-.03,0-.06-.01-.09-.02-.41-.03-.75-.23-1.08-.44-.06-.04-.12-.13-.14-.2-.11-.4-.01-.66.32-.91.03-.04.05-.09.08-.13.37-.16.74-.31,1.12-.47.03,0,.06-.02.09-.03.13-.01.26-.02.39-.04.03,0,.06-.01.09-.02.4-.1.8-.2,1.2-.29.03-.01.06-.02.09-.03.1,0,.2-.02.3-.03.03,0,.06-.01.09-.02.35-.14.71-.27,1.05-.42.06-.03.07-.19.07-.29,0-.13-.02-.26-.03-.39-.01-.01-.02-.02-.04-.04-.15-.01-.3-.04-.44-.04-.28,0-.56.01-.84.04-.49.06-.98.13-1.48.2-.03,0-.06.01-.09.02-.17,0-.34.02-.52.03-.04,0-.09.02-.13.03-.25.06-.49.12-.74.17-.2.05-.4.09-.6.13-.03,0-.06.02-.09.03-.2.04-.4.07-.6.11-.01.01-.03.02-.04.03l-1.24.31s-.06.02-.09.02c-.26.06-.52.13-.77.19-.08.04-.15.08-.23.12h-.02s-.01,0-.01,0c-.06,0-.11.01-.17.02-.2.01-.41.04-.61.04-.09,0-.19-.07-.28-.11.02-.1.06-.16.05-.23-.03-.25.1-.34.31-.39.18-.05.36-.12.54-.18.04,0,.08-.02.13-.02.24-.07.49-.15.73-.22.02-.01.03-.02.05-.03,0,0,0,0,0,0,.05-.02.11-.05.16-.07.03,0,.06-.01.1-.02.01,0,.03,0,.04-.01.01,0,.03,0,.04-.01.02,0,.03,0,.05,0,.03,0,.05,0,.08-.01.06,0,.11-.02.17-.03.01,0,.03,0,.04-.01.43-.12.87-.25,1.3-.35.36-.08.73-.12,1.09-.16.35-.04.69-.06,1.04-.09.04,0,.09-.02.13-.02.14-.02.29-.04.43-.06.03-.01.06-.02.09-.03.13-.02.26-.04.4-.06.6-.07,1.21-.03,1.8-.21.16-.05.22-.11.21-.29-.02-.21,0-.42-.02-.62-.01-.21.07-.32.27-.36.1-.02.19-.06.28-.09.03-.01.06-.03.09-.04.38-.07.74-.03,1.08.14.01.03.03.06.04.09,0,.06,0,.11,0,.17.01.02.02.03.04.05h.01c0,.18,0,.37.01.56.02.03.03.06.05.09l.04.04c.13.06.26.13.39.19.03,0,.06.01.09.02.57-.01,1.14-.02,1.7.09.23.05.47.03.7.04.38,0,.76.02,1.13.02.09.03.17.05.26.08.01,0,.03.02.04.02.03,0,.06,0,.09.01.3.01.61.02.91.03,0,0,.02,0,.03,0,.33.06.67.12,1,.18l.09-.02c.67.16,1.34.31,2,.48.35.09.71.13.99.39.01,0,.03,0,.04,0,0,0,0,0,0,0,.01,0,.03.02.04.02.03.03.06.07.09.1,0,.06,0,.13,0,.19ZM1414.26,428.56s0-.06,0-.09c0-.03-.02-.06-.03-.08-.24-.2-.48-.39-.81-.42-.02-.01-.03-.02-.05-.03-.17-.04-.34-.08-.52-.13-.09-.13-.2-.09-.3-.03-.51-.05-1.03-.1-1.54-.15-.1-.01-.19-.06-.28-.1-.1-.04-.2-.1-.3-.15-.08-.12-.15-.12-.22,0-.2.08-.39.18-.6.23-.29.08-.59.13-.88.19-.61.12-1.23.21-1.84.34-.4.09-.81.15-1.15.41-.08.06-.2.15-.08.23.27.17.55.34.86.43.25.07.54.03.81.04.12,0,.24,0,.36,0,.73-.02,1.46-.03,2.19-.05.1,0,.2,0,.3-.01.66-.01,1.31-.03,1.97-.05.47-.01.95.03,1.39-.22.06-.03.14-.02.21-.03.03,0,.06-.02.09-.02.13-.08.26-.16.39-.24.01-.03.02-.06.03-.09Z"/>
    <polygon class="cls-13" points="1387.53 405.38 1387.61 409.17 1380.51 405.52 1387.53 405.38"/>
    <polygon class="cls-13" points="1437.98 404.36 1431.15 408.37 1431.03 404.51 1437.98 404.36"/>
    <polygon class="cls-12" points="1409.33 412.71 1410.74 416.45 1414.66 416.38 1411.56 418.78 1412.81 422.6 1409.52 420.28 1406.35 422.73 1407.43 418.96 1404.19 416.61 1408.15 416.5 1409.33 412.71"/>
    <polygon class="cls-12" points="1417.63 417.81 1418.24 419.6 1420.1 419.58 1418.64 420.63 1419.24 422.5 1417.73 421.42 1416.19 422.56 1416.73 420.75 1415.22 419.68 1417.1 419.62 1417.63 417.81"/>
    <polygon class="cls-12" points="1422.92 419.52 1423.29 420.6 1424.4 420.59 1423.52 421.22 1423.88 422.34 1422.98 421.69 1422.06 422.38 1422.38 421.29 1421.48 420.65 1422.6 420.61 1422.92 419.52"/>
    <polygon class="cls-12" points="1401.43 418.19 1402.05 419.99 1403.9 419.96 1402.44 421.02 1403.04 422.89 1401.53 421.8 1399.99 422.95 1400.53 421.13 1399.03 420.06 1400.9 420.01 1401.43 418.19"/>
    <polygon class="cls-12" points="1396.16 420.08 1396.53 421.16 1397.65 421.15 1396.77 421.78 1397.13 422.9 1396.22 422.25 1395.3 422.94 1395.62 421.85 1394.72 421.21 1395.85 421.18 1396.16 420.08"/>
    <rect class="cls-10" x="1400.64" y="391.29" width="16.62" height="2.52" transform="translate(-7.64 28.54) rotate(-1.16)"/>
    <g>
      <path class="cls-10" d="M1419.55,382.68c-.71.01-1.26.67-1.25,1.45,0,.33.12.64.29.88l-2.95,2.2c-.17.13-.41.02-.44-.18l-.59-4.26c.62-.1,1.1-.71,1.08-1.44-.02-.79-.6-1.42-1.31-1.4s-1.26.67-1.25,1.45c.01.56.31,1.04.74,1.27l-2.76,3.64c-.14.18-.42.13-.48-.09l-1.53-5.11c.5-.2.85-.74.84-1.37-.02-.79-.6-1.42-1.31-1.4s-1.26.67-1.25,1.45c.01.73.52,1.32,1.15,1.39l-1.59,5.08c-.07.21-.34.26-.48.09l-2.81-3.47c.42-.24.7-.73.69-1.3-.02-.79-.6-1.42-1.31-1.4s-1.26.67-1.25,1.45c.01.73.52,1.32,1.15,1.39l-.36,4.22c-.02.21-.25.32-.42.21l-3.15-1.96c.2-.26.32-.59.31-.96-.02-.79-.6-1.42-1.31-1.4s-1.26.67-1.25,1.45.6,1.42,1.31,1.4c.26,0,.5-.1.7-.25.59,1.07,1.74,3.3,1.87,4.67l16.56-.29c.07-1.94,1.08-3.24,1.67-4.8.21.15.46.24.73.24.71-.01,1.26-.67,1.25-1.45s-.6-1.42-1.31-1.4ZM1406.93,389.56l-1.54.03h0c0-.32.23-.68.7-1.05.39-.31.5-.4.49-.68,0-.24-.15-.44-.46-.43s-.46.16-.51.47h-.24c.04-.38.29-.67.75-.68.51-.01.72.31.73.63,0,.35-.15.48-.58.83-.34.27-.53.48-.59.68l1.3-.03-.03.22ZM1408.08,389.58c-.63.01-.81-.6-.82-1.18s.16-1.2.79-1.21.8.59.82,1.16-.13,1.21-.78,1.23ZM1409.98,389.5h-.25s-.04-2.01-.04-2.01c-.12.1-.38.22-.51.25v-.2c.16-.05.39-.19.56-.35h.19s.05,2.32.05,2.32ZM1411.3,389.52c-.51.01-.76-.3-.81-.61h.25c.06.21.24.41.57.4.38,0,.53-.26.52-.52,0-.34-.24-.48-.57-.47h-.15s0-.2,0-.2h.13c.34,0,.49-.15.48-.41,0-.23-.17-.38-.45-.37-.3,0-.42.16-.47.38h-.24c.03-.28.24-.57.71-.58s.7.27.7.57c0,.28-.17.43-.32.49h0c.24.07.44.25.44.59,0,.38-.23.73-.79.74Z"/>
      <path class="cls-10" d="M1408.05,387.41c-.46,0-.54.49-.53,1,0,.44.11.98.56.97s.53-.52.52-1.01c0-.44-.11-.96-.55-.96Z"/>
    </g>
    <g>
      <path class="cls-12" d="M1427.49,397.56c-.12-.16-.26-.28-.41-.36-.16-.08-.32-.11-.49-.11-.15,0-.28.03-.4.08-.12.05-.22.12-.31.21-.09.09-.17.19-.24.32-.07.12-.12.26-.16.41-.04.15-.07.32-.09.49-.02.18-.03.36-.02.55,0,.34.05.64.12.89.07.25.17.46.29.62.12.16.26.28.41.36.16.08.32.11.49.11.15,0,.28-.03.4-.08.12-.05.22-.12.31-.21.09-.09.17-.19.24-.32s.12-.26.16-.41.07-.32.09-.49c.02-.17.03-.36.02-.55,0-.34-.05-.64-.12-.89-.07-.25-.17-.46-.29-.62Z"/>
      <path class="cls-12" d="M1423.41,397.64c-.12-.16-.26-.28-.41-.36-.16-.08-.32-.11-.49-.11-.15,0-.28.03-.4.08-.12.05-.22.12-.31.21-.09.09-.17.19-.24.32-.07.12-.12.26-.16.41-.04.15-.07.32-.09.49-.02.18-.03.36-.02.55,0,.34.05.64.12.89.07.25.17.46.29.62.12.16.26.28.41.36.16.08.32.11.49.11.15,0,.28-.03.4-.08.12-.05.22-.12.31-.21.09-.09.17-.19.24-.32s.12-.26.16-.41.07-.32.09-.49c.02-.17.03-.36.02-.55,0-.34-.05-.64-.12-.89-.07-.25-.17-.46-.29-.62Z"/>
      <path class="cls-12" d="M1446.06,399.39l-8.06-.64-.19-4.49-57.57,1.17.06,4.51-7.95.91,5.77,4.48-4.58,5.61,14.06-1.78-7.1-3.65,57.47-1.16-6.83,4.01,14.04,1.17-4.78-5.46,5.65-4.7ZM1389.27,399.08c-.1.19-.19.36-.25.5s-.12.27-.17.37c-.03.07-.05.13-.07.19-.02.06-.04.13-.05.2s-.02.15-.03.24c0,.09-.01.19-.02.31,0,.08,0,.16,0,.24,0,.08,0,.17,0,.26,0,.09,0,.19,0,.29,0,.1,0,.22,0,.34l-.44.07h-.03c0-.17,0-.33.01-.5,0-.16,0-.31,0-.44,0-.13,0-.25,0-.35s0-.17,0-.22c0-.08,0-.16-.02-.25-.01-.09-.04-.17-.06-.27-.03-.1-.07-.21-.11-.33-.04-.12-.09-.23-.14-.35-.05-.12-.1-.23-.15-.35s-.1-.22-.15-.32-.09-.19-.13-.27c-.04-.08-.07-.15-.1-.2-.02-.05-.05-.08-.07-.12-.03-.03-.05-.06-.09-.07-.03-.02-.07-.03-.11-.04-.04,0-.08-.01-.13,0-.05,0-.09,0-.14.01-.05,0-.1.01-.16.02l-.02-.17c.19-.05.34-.09.47-.12.12-.03.23-.04.3-.04s.14.01.19.04c.05.03.09.08.12.15.02.04.05.1.08.16.03.07.07.15.11.23.04.09.08.18.13.29.04.1.09.21.13.32.04.11.09.22.13.32.04.11.08.21.12.31.03.09.06.17.09.25.02.07.05.15.07.22h.01c.06-.14.11-.28.17-.43s.12-.28.17-.42c.06-.14.11-.27.17-.4.06-.13.11-.25.16-.36.05-.11.1-.22.14-.31s.08-.17.12-.24c.02-.04.04-.08.07-.1.02-.02.05-.04.08-.06s.06-.02.09-.03c.03,0,.06,0,.1,0,.02,0,.04,0,.06,0,.02,0,.05,0,.07.01.02,0,.05.01.07.02s.04.02.06.03c-.18.25-.34.49-.47.71-.14.22-.26.43-.36.62ZM1394.24,401.86c-.07.03-.14.06-.21.08s-.13.04-.2.05c-.06.01-.12.02-.17.02-.09,0-.17-.02-.23-.05-.06-.04-.11-.09-.14-.16s-.06-.15-.07-.24c-.01-.09-.02-.2-.02-.31,0-.12,0-.26,0-.39,0-.14,0-.28.02-.43h-.02c-.04.12-.08.24-.14.37s-.12.25-.19.37c-.07.12-.15.23-.23.34s-.18.2-.28.28c-.1.08-.21.15-.33.19-.12.05-.25.07-.39.08-.15,0-.27-.01-.38-.05s-.2-.09-.28-.16c-.08-.07-.14-.15-.2-.25-.05-.1-.09-.2-.12-.32-.03-.12-.05-.24-.07-.37-.01-.13-.02-.26-.02-.39,0-.14,0-.3,0-.46s.02-.32.03-.48.02-.32.04-.47.03-.29.04-.41c.01-.13.02-.23.03-.32,0-.09.01-.16.01-.2,0-.04,0-.08-.01-.11,0-.03-.02-.06-.05-.08-.02-.02-.05-.04-.09-.05-.04,0-.09-.01-.15-.01-.04,0-.09,0-.15.01-.05,0-.12.01-.18.03l-.02-.16c.19-.05.35-.09.48-.11.13-.03.24-.04.33-.04.06,0,.11,0,.16.02.04.01.07.03.1.06.02.03.04.06.05.1.01.04.02.09.02.15,0,.03,0,.1-.01.19s-.02.2-.03.33c-.01.13-.03.27-.04.43-.02.16-.03.32-.04.49-.01.17-.02.34-.03.52,0,.17,0,.34,0,.5,0,.1,0,.2.01.3,0,.1.02.2.04.29.02.09.05.18.08.26s.08.15.13.21.12.11.2.14.17.05.28.05c.13,0,.25-.03.36-.09.12-.06.23-.14.33-.25.1-.1.19-.23.28-.37.08-.14.16-.3.22-.47s.11-.35.14-.54c.04-.19.06-.39.06-.59,0-.08,0-.15,0-.22,0-.07,0-.15,0-.22,0-.08,0-.15,0-.24,0-.08,0-.17,0-.26,0-.09,0-.19.01-.3,0-.11.01-.23.02-.36,0-.03,0-.05.02-.07s.03-.04.06-.05c.02-.01.05-.03.08-.03.03,0,.06-.01.09-.01.04,0,.08,0,.12.01s.09.02.13.04c-.02.28-.04.54-.05.8s-.02.5-.03.74c0,.24-.01.48-.01.71,0,.24,0,.47,0,.72,0,.19,0,.35.02.49s.02.25.05.34c.03.09.06.16.11.2.05.04.11.06.2.06.05,0,.11,0,.17-.02.06-.01.14-.03.22-.07l.05.15c-.07.04-.14.07-.21.1ZM1396.63,398.93c-.1.19-.19.36-.25.5s-.12.27-.17.37c-.03.07-.05.13-.07.19-.02.06-.04.13-.05.2s-.02.15-.03.24c0,.09-.01.19-.02.31,0,.08,0,.16,0,.24,0,.08,0,.17,0,.26,0,.09,0,.19,0,.29,0,.1,0,.22,0,.34l-.44.07h-.03c0-.17,0-.33.01-.5,0-.16,0-.31,0-.44,0-.13,0-.25,0-.35s0-.17,0-.22c0-.08,0-.16-.02-.25-.01-.09-.04-.17-.06-.27-.03-.1-.07-.21-.11-.33-.04-.12-.09-.23-.14-.35-.05-.12-.1-.23-.15-.35s-.1-.22-.15-.32-.09-.19-.13-.27c-.04-.08-.07-.15-.1-.2-.02-.05-.05-.08-.07-.12-.03-.03-.05-.06-.09-.07-.03-.02-.07-.03-.11-.04-.04,0-.08-.01-.13,0-.05,0-.09,0-.14.01-.05,0-.1.01-.16.02l-.02-.17c.19-.05.34-.09.47-.12.12-.03.23-.04.3-.04s.14.01.19.04c.05.03.09.08.12.15.02.04.05.1.08.16.03.07.07.15.11.23.04.09.08.18.13.29.04.1.09.21.13.32.04.11.09.22.13.32.04.11.08.21.12.31.03.09.06.17.09.25.02.07.05.15.07.22h.01c.06-.14.11-.28.17-.43s.12-.28.17-.42c.06-.14.11-.27.17-.4.06-.13.11-.25.16-.36.05-.11.1-.22.14-.31s.08-.17.12-.24c.02-.04.04-.08.07-.1.02-.02.05-.04.08-.06s.06-.02.09-.03c.03,0,.06,0,.1,0,.02,0,.04,0,.06,0,.02,0,.05,0,.07.01.02,0,.05.01.07.02s.04.02.06.03c-.18.25-.34.49-.47.71-.14.22-.26.43-.36.62ZM1398.56,398.24c0,.12,0,.27,0,.46,0,.19,0,.4,0,.65s0,.5,0,.78c0,.27,0,.56,0,.85,0,.29,0,.58,0,.87l-.44.07h-.03c0-.36.01-.7.02-1.03s0-.63.01-.94c0-.3,0-.61,0-.9s0-.6-.01-.92c0-.06,0-.11-.01-.15,0-.04-.02-.08-.04-.1-.02-.03-.05-.04-.09-.06-.04-.01-.09-.02-.15-.01-.04,0-.09,0-.15,0-.06,0-.12.01-.19.03l-.02-.16c.18-.05.34-.09.47-.11.13-.03.24-.04.33-.04s.15,0,.19.03c.05.02.08.05.1.1s.03.1.04.16c0,.06,0,.13.01.21,0,.03,0,.1,0,.22ZM1402.97,397.48c-.06.09-.11.2-.15.34-.04.14-.08.3-.1.47-.03.17-.05.35-.07.54-.02.19-.03.38-.03.56,0,.19-.01.36-.01.53s0,.32,0,.46c0,.12,0,.23,0,.35s0,.22,0,.34,0,.23,0,.34c0,.11,0,.23,0,.35l-.23.03h-.03c-.04-.05-.09-.12-.15-.21-.06-.09-.13-.19-.2-.3-.08-.11-.16-.24-.24-.37s-.18-.27-.27-.42-.19-.29-.29-.44-.19-.3-.29-.45-.19-.29-.28-.43-.17-.27-.25-.4c-.08-.12-.15-.24-.22-.34-.06-.1-.12-.19-.17-.26,0,.28,0,.55,0,.81,0,.26,0,.52,0,.76,0,.24,0,.47-.02.69,0,.22-.01.42-.02.61,0,.13-.01.24-.02.34,0,.09-.02.17-.03.23-.01.06-.03.11-.05.15-.02.04-.04.06-.07.08-.03.02-.06.03-.1.04-.04,0-.09,0-.14.01h-.05s-.02,0-.04,0c-.02,0-.03,0-.06,0l-.03-.02c.05-.12.1-.26.14-.41.04-.15.07-.31.1-.48.03-.17.05-.34.07-.52s.04-.36.05-.54c.01-.18.02-.36.03-.53,0-.18,0-.34.01-.5s0-.3,0-.44c0-.14,0-.25,0-.35,0-.05,0-.1-.02-.14,0-.04-.02-.07-.05-.09-.02-.02-.05-.04-.09-.05-.04-.01-.09-.02-.15-.01-.04,0-.09,0-.14.01s-.11.01-.18.03l-.02-.17c.1-.03.2-.05.28-.07.08-.02.16-.04.23-.05s.13-.02.19-.03c.06,0,.11-.01.15-.01s.09,0,.12.01c.03.01.07.03.1.05.03.02.06.06.09.1.03.04.06.09.1.15.06.1.13.21.2.34s.16.26.24.39c.09.14.17.28.27.43.09.15.19.3.28.44s.19.3.28.44c.09.14.18.28.27.42.09.13.17.26.25.37.08.12.15.22.21.31,0-.34-.01-.64-.02-.92,0-.28,0-.52,0-.75,0-.22,0-.42,0-.59,0-.17,0-.32.01-.45,0-.13.01-.24.02-.33,0-.09.02-.17.03-.23.01-.05.03-.09.05-.13s.04-.06.07-.08c.03-.02.06-.04.09-.04.03,0,.07-.01.1-.01.08,0,.17.01.26.05v.02ZM1406.73,398.01c0,.14,0,.3-.02.5h-.16s0-.03,0-.05,0-.03,0-.05c0-.09-.01-.17-.03-.25s-.05-.15-.1-.22c-.05-.07-.12-.13-.19-.18-.07-.05-.15-.1-.24-.13s-.18-.06-.27-.08-.2-.02-.3-.02c-.18,0-.33.03-.48.09-.14.06-.27.13-.38.23s-.21.21-.29.34c-.08.13-.15.27-.2.42-.05.15-.09.31-.11.48-.02.17-.03.34-.03.5,0,.23.03.45.07.64s.1.36.17.5c.07.15.16.27.26.38.1.11.21.19.33.26.12.07.25.12.38.15.13.03.27.04.41.04.11,0,.21-.01.29-.03.08-.02.14-.04.19-.07.05-.03.08-.06.11-.1.02-.04.04-.08.04-.12,0-.08.01-.16.01-.25s0-.18,0-.27v-.17c0-.09-.01-.17-.03-.22s-.04-.09-.07-.12c-.04-.03-.08-.04-.14-.04-.06,0-.14,0-.24,0h-.09s-.04,0-.06,0c-.02,0-.05,0-.08,0l-.02-.18s.04,0,.05,0h.04s.08,0,.08,0c.08,0,.17,0,.26,0,.09,0,.18,0,.26,0,.08,0,.15,0,.21,0,.06,0,.1,0,.11,0,.07,0,.12.01.15.05.03.03.05.09.05.17,0,.05,0,.12,0,.19,0,.08,0,.16,0,.26,0,.1,0,.2,0,.31,0,.11,0,.22,0,.34,0,.05,0,.08,0,.11s-.01.06-.02.08c-.01.02-.03.04-.05.06s-.05.03-.08.05c-.04.02-.09.04-.15.06s-.14.05-.23.07c-.09.02-.18.04-.29.05-.11.01-.21.02-.33.03-.16,0-.31,0-.48-.03-.16-.02-.32-.06-.48-.12s-.3-.14-.44-.24c-.14-.1-.26-.23-.36-.38-.1-.15-.19-.33-.25-.54-.06-.21-.1-.45-.1-.73,0-.2.01-.39.05-.59s.09-.39.17-.57c.08-.18.18-.35.3-.51.12-.16.26-.3.42-.42s.34-.21.55-.28c.2-.07.43-.11.67-.11.17,0,.33,0,.47.03.14.03.27.06.37.1.1.04.18.09.24.13.06.05.09.09.09.13,0,.09,0,.2,0,.34ZM1412.31,400.78c-.04.13-.1.25-.18.35-.08.1-.17.18-.27.25s-.21.13-.32.17c-.11.04-.22.08-.33.1-.11.02-.21.03-.31.03-.12,0-.24,0-.35-.02-.11-.01-.21-.04-.29-.06-.08-.03-.15-.06-.2-.09-.05-.03-.07-.07-.07-.11,0-.08,0-.2,0-.36,0-.16,0-.34.02-.56h.19s0,.06,0,.09c0,.03,0,.06,0,.08,0,.14.02.26.06.36.04.1.1.18.17.24.07.06.16.1.26.13s.21.04.34.04.24-.02.35-.06c.11-.04.21-.09.29-.16.08-.07.15-.16.2-.26.05-.1.07-.22.07-.36,0-.09-.01-.16-.04-.23-.02-.07-.06-.13-.1-.19-.04-.06-.09-.11-.15-.16-.06-.05-.12-.1-.19-.14s-.14-.08-.21-.12c-.07-.04-.15-.08-.22-.12-.08-.04-.16-.08-.24-.13-.08-.04-.16-.09-.23-.14-.07-.05-.14-.1-.2-.16s-.12-.12-.16-.2c-.05-.07-.08-.15-.11-.24-.03-.09-.04-.18-.04-.29,0-.13.01-.26.04-.37s.08-.22.14-.32c.06-.1.13-.18.21-.26s.17-.14.27-.2.21-.1.32-.13.23-.05.35-.05c.06,0,.11,0,.18,0,.06,0,.13.01.19.03.06.01.12.03.18.05.06.02.11.04.15.06.04.02.08.05.11.08.03.03.04.06.04.1,0,.04,0,.08,0,.14,0,.05,0,.12,0,.19,0,.07,0,.15,0,.23,0,.08,0,.17,0,.26h-.19c0-.05,0-.09,0-.14,0-.12-.02-.23-.06-.33-.04-.09-.09-.17-.16-.23-.07-.06-.15-.11-.25-.14s-.2-.04-.32-.04-.22.02-.32.06-.18.1-.26.17c-.07.07-.13.15-.17.25-.04.09-.06.2-.06.31,0,.09.02.17.04.25.03.07.06.14.1.2.04.06.09.12.15.17.06.05.12.1.19.14s.14.09.22.13c.08.04.15.08.23.12.08.04.16.08.24.12.08.04.16.09.23.14s.14.1.2.16.12.12.16.19c.05.07.08.15.11.23.03.08.04.18.04.28,0,.17-.02.32-.06.46ZM1416.08,400.88c-.12.14-.24.25-.37.35-.12.09-.25.17-.37.23-.13.06-.25.1-.38.13s-.26.04-.38.04c-.17,0-.33-.02-.49-.06-.15-.04-.3-.11-.43-.19-.13-.09-.25-.19-.36-.31-.11-.12-.2-.26-.28-.41-.08-.15-.14-.32-.18-.5s-.07-.37-.07-.58.01-.39.05-.59c.04-.2.09-.39.17-.57.07-.18.17-.35.28-.51.12-.16.25-.3.41-.42s.33-.21.53-.28c.2-.07.41-.11.65-.11.16,0,.32,0,.46.04s.26.06.36.1c.1.04.18.09.24.14.06.05.09.09.09.14,0,.09,0,.2,0,.34,0,.14,0,.3-.01.5h-.16s0-.04,0-.05,0-.03,0-.05c0-.09-.01-.17-.03-.25-.02-.08-.05-.15-.1-.22-.05-.07-.11-.13-.18-.19s-.15-.1-.23-.13c-.08-.04-.17-.06-.27-.08-.09-.02-.19-.03-.29-.02-.17,0-.32.03-.46.09s-.26.13-.36.22c-.11.09-.2.21-.27.33s-.14.27-.19.41c-.05.15-.08.31-.11.47s-.03.33-.03.5c0,.2.02.38.06.56.04.17.09.33.15.48.06.15.14.28.23.39.09.11.19.21.29.29.11.08.22.14.35.18.12.04.25.06.39.06.1,0,.19-.01.29-.04.1-.02.2-.06.31-.1.1-.05.21-.11.31-.18.1-.07.21-.15.31-.25.01,0,.02.01.04.02.01,0,.03.02.04.02.01,0,.02.02.03.03s.01.02.01.03c0,0,0,.02-.01.03ZM1420.42,401.35c-.08.03-.15.06-.22.08-.07.02-.13.04-.19.05-.06.01-.11.02-.17.02-.07,0-.13-.01-.19-.04s-.1-.07-.14-.13c-.04-.06-.07-.14-.09-.24-.02-.1-.03-.22-.03-.37v-.43c-.01-.1-.01-.19-.01-.28,0-.09,0-.18,0-.26,0-.08,0-.17,0-.24,0-.08,0-.16,0-.24-.17,0-.34,0-.5.01-.16,0-.32.01-.49.02-.16,0-.33.02-.49.03-.17,0-.34.02-.52.03l-.02,2.11-.44.07h-.03c0-.36.01-.71.02-1.03s0-.64.01-.95c0-.31,0-.61,0-.91s0-.6-.01-.9c0-.06,0-.11-.02-.15,0-.04-.02-.08-.05-.1-.02-.03-.05-.04-.09-.06-.04-.01-.09-.02-.15-.01-.08,0-.19.01-.32.03l-.02-.16c.18-.05.33-.09.46-.11.13-.03.23-.04.32-.04s.15,0,.2.03c.05.02.08.05.11.1s.04.1.05.16.01.13.01.21c0,.05,0,.12,0,.2,0,.08,0,.18,0,.3,0,.12,0,.26,0,.42,0,.16,0,.34,0,.54.18,0,.35-.02.52-.03s.33-.01.49-.02c.16,0,.32-.01.49-.02.16,0,.33-.01.5-.01,0-.13,0-.26,0-.38,0-.13,0-.26,0-.4,0-.14,0-.29.01-.46,0-.16.01-.34.02-.54,0-.03,0-.05.02-.07.02-.02.04-.04.06-.05.02-.01.05-.02.08-.03s.06-.01.09-.01c.04,0,.08,0,.12.01s.08.02.12.04c-.01.21-.03.4-.04.59-.01.19-.02.37-.03.55,0,.18-.01.35-.02.53,0,.17,0,.35,0,.53,0,.18,0,.36,0,.54,0,.18,0,.38,0,.58,0,.13.01.25.02.34.01.09.03.17.06.23s.07.1.12.13c.05.03.11.04.18.04.05,0,.1,0,.16-.02.06,0,.12-.03.2-.06l.06.15c-.09.04-.17.08-.25.11ZM1424.3,399.59c-.03.21-.08.4-.15.59-.07.18-.15.35-.25.51-.1.15-.22.29-.36.4-.14.11-.29.2-.46.27s-.36.1-.57.1c-.25,0-.48-.03-.7-.12-.21-.08-.4-.21-.55-.38-.16-.17-.28-.38-.37-.64s-.14-.55-.15-.9c0-.22,0-.43.04-.63.03-.21.08-.4.15-.59.07-.18.15-.35.25-.51.1-.15.22-.29.36-.4.14-.11.29-.2.46-.27.17-.06.36-.1.57-.1.25,0,.48.03.7.12s.4.21.55.38c.16.17.28.38.37.64.09.26.14.55.14.89,0,.22,0,.43-.04.63ZM1428.38,399.51c-.03.21-.08.4-.15.59-.07.18-.15.35-.25.51-.1.15-.22.29-.36.4-.14.11-.29.2-.46.27s-.36.1-.57.1c-.25,0-.48-.03-.7-.12-.21-.08-.4-.21-.55-.38-.16-.17-.28-.38-.37-.64s-.14-.55-.15-.9c0-.22,0-.43.04-.63.03-.21.08-.4.15-.59.07-.18.15-.35.25-.51.1-.15.22-.29.36-.4.14-.11.29-.2.46-.27.17-.06.36-.1.57-.1.25,0,.48.03.7.12s.4.21.55.38c.16.17.28.38.37.64.09.26.14.55.14.89,0,.22,0,.43-.04.63ZM1431.74,400.7c-.02.14-.06.26-.1.34-.05.08-.1.14-.17.17s-.15.05-.23.05c-.07,0-.14,0-.22-.01-.08-.01-.17-.02-.26-.04s-.2-.03-.31-.04c-.11-.01-.23-.01-.36-.01-.11,0-.24.01-.37.03-.13.02-.27.04-.41.08h-.03c.02-.18.03-.36.04-.56.01-.2.02-.4.03-.62,0-.21.01-.43.01-.65s0-.45,0-.67c0-.22,0-.44,0-.66,0-.22,0-.43-.01-.63,0-.06,0-.11-.01-.15,0-.04-.02-.08-.04-.1-.02-.03-.05-.04-.09-.06-.04-.01-.09-.02-.15-.01-.04,0-.09,0-.15,0-.06,0-.12.01-.19.03l-.02-.16c.18-.05.34-.09.47-.11.13-.03.24-.04.33-.04s.15,0,.19.03c.05.02.08.05.1.1s.03.1.04.16,0,.13.01.21c0,0,0,.05,0,.12,0,.08,0,.18,0,.31,0,.13,0,.28,0,.45s0,.35,0,.54,0,.39,0,.59c0,.2,0,.4-.01.59,0,.19-.01.37-.02.54,0,.17-.02.32-.03.44.12-.02.23-.04.34-.05.11-.01.21-.02.3-.02.13,0,.25,0,.36,0s.22,0,.33,0c.08,0,.14-.01.2-.04.06-.02.11-.06.15-.12.04-.06.08-.13.1-.23.03-.1.05-.22.06-.37h.16c0,.23,0,.41-.03.56Z"/>
    </g>
  </g>
</svg>